<svg width="25" height="14" viewBox="0 0 25 14" fill="none" xmlns="http://www.w3.org/2000/svg">
<path d="M9.12515 1.34585C9.16259 1.39242 9.27863 1.43653 9.3962 1.44126C9.58095 1.44869 9.61367 1.47254 9.69086 1.65027C9.75256 1.79359 9.81196 1.85231 9.90713 1.85614C9.97992 1.85907 10.0628 1.89057 10.1005 1.93151C10.1973 2.03681 10.1636 2.4692 10.0613 2.50452C9.98744 2.52971 9.99195 2.55806 10.081 2.71937C10.1386 2.82309 10.1829 2.98259 10.1792 3.07821C10.1756 3.31465 10.3452 3.71017 10.4931 3.80062C10.6687 3.89781 11.0111 3.88906 16.4664 3.6185C23.0006 3.28997 22.8996 3.29154 22.9841 3.4245C23.0583 3.53452 23.0648 3.94599 23 4.16871C22.9679 4.27445 22.911 4.29469 22.585 4.31537L22.2085 4.33402L22.2818 4.61299L22.355 4.89197L22.9037 4.91404L23.4524 4.93612L23.4381 5.3017C23.4261 5.61104 23.4071 5.66661 23.3227 5.67448C23.2721 5.67807 23.3778 5.69923 23.5619 5.72354L23.8965 5.7708L23.9008 6.09206C23.904 6.44145 23.9154 6.43627 23.4593 6.48552C23.2452 6.5107 23.2222 6.52667 23.2163 6.67853C23.2126 6.77414 23.1757 6.85715 23.1246 6.872C23.079 6.8927 23.0371 6.95861 23.0343 7.03173C23.0315 7.10484 22.9823 7.21553 22.9237 7.28077C22.8355 7.38425 22.8215 7.45691 22.8482 7.77908C22.8953 8.44005 22.8891 8.4567 22.667 8.54353C22.4964 8.60426 22.4669 8.6425 22.4606 8.80561C22.4566 8.90685 22.4186 9.01798 22.3781 9.05015C22.3088 9.10369 20.7359 9.17559 17.5364 9.2609C15.7514 9.30737 10.9819 9.39146 10.6852 9.37952C10.5228 9.37298 10.5053 9.38918 10.4759 9.56826C10.453 9.72506 10.4683 9.76511 10.563 9.78019C10.6631 9.80112 10.6728 9.84094 10.6559 10.274C10.6432 10.6002 10.6595 10.7586 10.7092 10.7775C10.8253 10.8216 10.7722 11.3208 10.6388 11.4337C10.575 11.4875 10.5216 11.5642 10.52 11.6036C10.5187 11.6373 10.4379 11.6961 10.347 11.7262C10.1543 11.7804 10.1221 11.8861 10.2827 11.9377C10.3714 11.9638 10.3916 12.0209 10.3851 12.1896C10.3794 12.3359 10.3485 12.4079 10.3037 12.4061C10.2646 12.4045 10.1726 12.4627 10.1023 12.5388C9.99113 12.6582 9.92889 12.6726 9.59297 12.6591C9.27385 12.6463 9.17955 12.6199 9.02739 12.4955C8.92408 12.4125 8.79213 12.3452 8.72494 12.3425C8.65776 12.3398 8.49825 12.2602 8.36157 12.1702C8.23049 12.0804 7.65578 11.7193 7.08041 11.375C5.10784 10.1916 3.42465 9.06481 2.48435 8.3003C2.04422 7.93897 1.8363 7.80667 1.66921 7.77742C1.49094 7.74771 1.44186 7.71194 1.43439 7.61587C1.42582 7.54793 1.27629 7.35602 1.09788 7.18548C0.800255 6.90874 0.779395 6.86847 0.793317 6.65497C0.802079 6.43 0.819749 6.40818 1.12974 6.22349C1.30768 6.11799 1.73402 5.82533 2.07463 5.57427C2.40964 5.323 2.71491 5.11559 2.7429 5.11672C2.86048 5.12145 3.09944 4.88884 3.10426 4.7651C3.11083 4.59637 3.27757 4.49042 3.65036 4.42093C4.18683 4.32422 5.38222 3.57805 5.55816 3.23587C5.6554 3.04263 5.70732 3.00529 6.03598 2.91711C6.32501 2.83862 6.41118 2.78575 6.42589 2.69621C6.44081 2.60105 6.50974 2.55876 6.70185 2.52142C6.9338 2.46879 6.95103 2.45822 6.95826 2.27262C6.96439 2.11514 6.98854 2.07105 7.09019 2.0526C7.16363 2.03866 7.34432 2.0065 7.50239 1.97906C7.65465 1.95702 7.9327 1.87245 8.10933 1.80069C8.41109 1.68327 8.43458 1.65605 8.45882 1.4655C8.4835 1.2637 8.4835 1.2637 8.76969 1.25832C8.97168 1.25518 9.07179 1.27611 9.12515 1.34585ZM8.34726 7.06598C8.33563 7.07678 8.43596 7.09208 8.58153 7.09794C8.72149 7.10357 8.85114 7.08626 8.86903 7.05881C8.89877 7.01494 8.3994 7.02301 8.34726 7.06598ZM4.73735 9.05004C4.74811 9.06174 4.81376 9.10381 4.87963 9.14026C4.98381 9.20079 5.00643 9.19606 5.00927 9.12295C5.01146 9.0667 4.96217 9.03656 4.8614 9.0325C4.78302 9.02935 4.72659 9.03834 4.73735 9.05004Z" fill="#7743E5"/>
<path d="M9.22011 1.86929C9.21793 1.92534 8.93265 2.05416 8.895 2.01335C8.87864 2.00147 8.94798 1.94813 9.04508 1.90153C9.14197 1.86053 9.22119 1.84127 9.22011 1.86929Z" fill="#261733"/>
<path d="M9.39368 2.44581C9.3239 2.51034 8.29482 2.59238 8.01045 2.55288C7.84879 2.52954 7.87721 2.51946 8.19305 2.47044C8.76811 2.38697 9.4639 2.37007 9.39368 2.44581Z" fill="#261733"/>
<path d="M9.7197 3.42254C9.71862 3.45054 9.67856 3.47697 9.63403 3.47518C9.58949 3.47338 9.55161 3.44381 9.5527 3.41581C9.554 3.3822 9.59384 3.36137 9.63838 3.36317C9.68291 3.36497 9.72101 3.38894 9.7197 3.42254Z" fill="#261733"/>
<path d="M8.21486 3.91074C8.11927 3.91812 7.54058 3.95095 6.92228 3.99342C6.30419 4.03028 5.71969 4.06849 5.62948 4.0817C5.47748 4.09803 5.47189 4.09781 5.55868 4.02835C5.6164 3.98578 5.87023 3.94549 6.15096 3.93433C6.4261 3.92296 6.84741 3.90062 7.09478 3.88252C7.34214 3.86441 7.7346 3.86336 7.96408 3.87259C8.19334 3.88743 8.30485 3.90313 8.21486 3.91074Z" fill="#261733"/>
<path d="M21.0235 5.35633C20.9828 5.39397 19.2964 5.51131 19.2138 5.47432C19.175 5.46154 19.3557 5.42953 19.62 5.40649C20.2276 5.35237 21.0642 5.31869 21.0235 5.35633Z" fill="#261733"/>
<path d="M9.25945 5.14688C9.21358 5.17309 8.99376 5.20352 8.78041 5.21177C8.50527 5.22314 8.44392 5.21506 8.58516 5.18707C8.91867 5.11633 9.357 5.08908 9.25945 5.14688Z" fill="#261733"/>
<path d="M12.9466 5.4681C12.7163 5.48129 12.3126 5.48193 12.0496 5.47138L11.5738 5.45229L12.0793 5.4277C12.3544 5.4163 12.7581 5.41566 12.9761 5.43002L13.3679 5.44573L12.9466 5.4681Z" fill="#261733"/>
<path d="M14.1119 5.77529C14.0044 5.79902 11.2176 5.96188 11.1227 5.95245C11.0835 5.95087 11.1466 5.91413 11.2656 5.87964C11.4872 5.80439 13.3914 5.70703 13.9115 5.73917C14.068 5.75108 14.1571 5.76588 14.1119 5.77529Z" fill="#261733"/>
<path d="M8.2815 5.78118C8.27932 5.83731 7.3664 5.95796 5.7178 6.11085C4.13681 6.25521 2.28132 6.39414 2.04622 6.38468L1.83911 6.37634L1.9832 6.27534C2.08723 6.19521 2.21685 6.17794 2.46874 6.18807C2.65906 6.19573 2.93399 6.18993 3.08578 6.17918C3.23757 6.16842 4.36276 6.06756 5.58332 5.9649C6.80389 5.86225 7.91207 5.76632 8.04168 5.74905C8.17668 5.73762 8.2826 5.75312 8.2815 5.78118Z" fill="#261733"/>
<path d="M9.35706 6.22757C9.33918 6.25492 9.21495 6.27798 9.08644 6.26719C8.90173 6.25975 8.87418 6.24741 8.96526 6.21179C9.1246 6.15084 9.40446 6.16212 9.35706 6.22757Z" fill="#261733"/>
<path d="M8.20322 6.34542C8.15176 6.37141 7.94875 6.40252 7.7522 6.41144C7.47149 6.42259 7.43253 6.4154 7.58495 6.38787C7.91284 6.31689 8.30077 6.28762 8.20322 6.34542Z" fill="#261733"/>
<path d="M9.41538 6.88591C9.41363 6.93081 9.33824 6.99523 9.24759 7.01969C9.15671 7.04976 9.07013 7.11374 9.05115 7.16919C9.01901 7.2747 8.58088 7.29642 5.53486 7.34247C3.63874 7.37297 3.56125 7.34737 5.10931 7.18481C6.18456 7.07068 9.23975 6.78889 9.34051 6.79295C9.38529 6.79475 9.41734 6.83539 9.41538 6.88591Z" fill="#261733"/>
<path d="M1.64614 6.72119C1.70918 6.8308 1.76989 6.85578 2.01109 6.85424C2.29127 6.85991 2.29665 6.86576 2.29053 7.02328C2.28659 7.12455 2.24434 7.20173 2.17002 7.23818C2.03862 7.30049 1.90083 7.23859 1.51465 6.93001C1.28627 6.74612 1.28132 6.72902 1.37913 6.66535C1.52326 6.5641 1.55104 6.57086 1.64614 6.72119Z" fill="#261733"/>
<path d="M10.7201 7.91721C10.6742 7.94342 10.5222 7.95975 10.3823 7.95411C10.1754 7.94017 10.1532 7.93367 10.2723 7.89918C10.4876 7.8405 10.829 7.85425 10.7201 7.91721Z" fill="#261733"/>
<path d="M2.75599 7.5835C2.88276 7.63913 2.82374 7.71534 2.66142 7.7088C2.57187 7.70519 2.47264 7.66189 2.4352 7.61548C2.37647 7.54014 2.39369 7.5296 2.52781 7.54063C2.61736 7.54424 2.72306 7.56534 2.75599 7.5835Z" fill="#261733"/>
<path d="M3.40648 8.27424C3.4706 8.35569 3.57457 8.42184 3.63615 8.42432C3.69214 8.42658 3.80148 8.49858 3.8712 8.58024C4.01602 8.74943 4.44404 8.84554 5.22199 8.88254C5.64747 8.8997 5.6871 8.89003 5.7761 8.76407C5.85325 8.65453 5.91592 8.62889 6.11165 8.64242C6.31879 8.65077 6.32977 8.65684 6.21024 8.70272C6.13636 8.7279 6.00432 8.80707 5.91751 8.87679C5.82509 8.94629 5.6487 9.0124 5.52466 9.02993C5.2262 9.06295 5.09517 9.26044 5.25053 9.44695C5.41127 9.63931 5.28185 9.65099 4.98027 9.47548C4.60723 9.2633 3.22152 8.27242 3.17441 8.18603C3.10084 8.05915 3.29438 8.12891 3.40648 8.27424Z" fill="#261733"/>
<path d="M8.51796 8.60188C8.38878 8.60791 8.18727 8.59983 8.07016 8.58391C7.95865 8.56822 8.06544 8.56128 8.31173 8.57117C8.55801 8.58105 8.65273 8.59607 8.51796 8.60188Z" fill="#261733"/>
<path d="M8.75803 9.34034C8.62239 9.36855 5.94772 9.53033 5.81361 9.51932C5.4115 9.4807 8.09911 9.27456 8.58002 9.30512C8.72532 9.31658 8.80325 9.33094 8.75803 9.34034Z" fill="#261733"/>
<path d="M9.19694 9.86947C9.09576 9.87663 8.94464 9.87056 8.86113 9.85597C8.77761 9.84139 8.862 9.83356 9.0467 9.84098C9.2314 9.8484 9.29812 9.86231 9.19694 9.86947Z" fill="#261733"/>
<path d="M7.37172 10.8067C7.39324 10.83 7.39193 10.8637 7.37405 10.891C7.3383 10.9457 7.18376 10.8833 7.18637 10.8161C7.18855 10.76 7.32331 10.7542 7.37172 10.8067Z" fill="#261733"/>
<path d="M8.00064 11.0626C8.03939 11.0755 8.07102 11.1274 8.06927 11.1724C8.06752 11.2174 8.14307 11.2937 8.23672 11.3369C8.34136 11.3862 8.3844 11.433 8.34433 11.454C8.26398 11.5014 7.61125 11.1258 7.65866 11.0601C7.69444 11.0052 7.89063 11.0075 8.00064 11.0626Z" fill="#261733"/>
<path d="M9.36489 11.7261C9.09834 11.8052 8.84581 11.8118 8.80947 11.7374C8.76731 11.6684 8.98196 11.6265 9.31197 11.6454L9.59161 11.6623L9.36489 11.7261Z" fill="#261733"/>
</svg>
