<svg width="46" height="65" viewBox="0 0 46 65" fill="none" xmlns="http://www.w3.org/2000/svg">
<path d="M22.9719 64.9998L4.18634 59.7791L0 12.774H46.0001L41.8093 59.772L22.9719 64.9998Z" fill="#4353AD"/>
<path d="M38.2216 56.7793L41.8025 16.6176H22.9999V61.0038L38.2216 56.7793Z" fill="#485FB5"/>
<path d="M23 49.0234L22.9747 49.0299L16.5613 47.2963L16.1513 42.6986H10.3704L11.1771 51.7504L22.9735 55.0287L23 55.0214V49.0234ZM8.55994 22.3826L9.0834 28.1475H23V22.3826H8.55994ZM9.59707 34.0509L10.1131 39.8159H23V34.0509H9.59707Z" fill="#EDEDED"/>
<path d="M27.5654 0H34.5403V2.53899H30.4824V3.04703H34.5403V8.88666H27.5654V6.22046H31.6236V5.71282H27.5656V0H27.5654ZM19.1956 0H26.1703V2.53899H22.1124V3.04703H26.1703V8.88666H19.1958V6.22046H23.2538V5.71282H19.1955V0H19.1956ZM10.8259 0H17.8005V2.91982H13.7427V5.84003H17.8009V8.75985H10.8259V0Z" fill="white"/>
<path d="M36.3662 34.0511L37.4057 22.3828H22.9802V28.1476H31.0947L30.5708 34.0511H22.9802V39.8161H30.0715L29.4026 47.2931L22.98 49.0283V55.026L34.7856 51.7506L34.872 50.7768L36.2257 35.5991L36.3662 34.0511Z" fill="white"/>
</svg>
