<svg width="16" height="16" viewBox="0 0 16 16" fill="none" xmlns="http://www.w3.org/2000/svg">
<path d="M2.28125 15.9689C1.18437 15.8564 0.328121 15.0971 0.0749962 14.0127C0.0187462 13.7783 0.0156212 13.5283 0.0156212 8.6252C0.0156212 3.72207 0.0187462 3.47207 0.0749962 3.2377C0.299996 2.26895 1.01562 1.5502 1.96875 1.32832C2.08125 1.30332 2.41875 1.27207 2.72187 1.25957L3.27187 1.24082L3.2875 0.862695C3.30625 0.368945 3.37812 0.218945 3.64687 0.0814453C3.775 0.0158203 4.0375 0.0158203 4.16562 0.0814453C4.4375 0.218945 4.50625 0.368945 4.525 0.868945L4.54062 1.2502H5.9375H7.33437L7.35 0.868945C7.36875 0.368945 7.4375 0.218945 7.70937 0.0814453C7.8375 0.0158203 8.1 0.0158203 8.22812 0.0814453C8.5 0.218945 8.56875 0.368945 8.5875 0.868945L8.60312 1.2502H10.0156H11.4281L11.4437 0.868945C11.4625 0.368945 11.5312 0.218945 11.8031 0.0814453C11.9312 0.0158203 12.1937 0.0158203 12.3219 0.0814453C12.5906 0.218945 12.6625 0.368945 12.6812 0.862695L12.6969 1.24082L13.2625 1.25957C13.8625 1.28145 14.1062 1.32207 14.4375 1.45957C15.3375 1.82832 15.9656 2.73457 15.9687 3.66582C15.9687 4.00645 15.8812 4.16895 15.6344 4.29395C15.4969 4.3627 15.2437 4.35957 15.1 4.28457C14.8812 4.17207 14.8 4.0252 14.7562 3.66582C14.6969 3.17832 14.4406 2.80645 14.0312 2.6127C13.8312 2.51582 13.8219 2.51582 13.2625 2.50645L12.6969 2.49707L12.6812 2.88145C12.6625 3.38145 12.5937 3.53145 12.3219 3.66895C12.1281 3.76582 11.8187 3.71895 11.6437 3.56582C11.5094 3.44707 11.4594 3.28145 11.4437 2.88457L11.4281 2.5002H10.0156H8.60312L8.5875 2.88457C8.56875 3.38145 8.5 3.53145 8.22812 3.66895C8.1 3.73457 7.8375 3.73457 7.70937 3.66895C7.4375 3.53145 7.36875 3.38145 7.35 2.88457L7.33437 2.5002H5.9375H4.54062L4.525 2.88457C4.50625 3.38145 4.4375 3.53145 4.16562 3.66895C4.0375 3.73457 3.775 3.73457 3.64687 3.66895C3.375 3.53145 3.30625 3.38145 3.2875 2.88145L3.27187 2.49707L2.72187 2.50645C2.18125 2.51582 2.16875 2.51895 1.96875 2.6127C1.70937 2.73457 1.48437 2.95957 1.3625 3.21895L1.26562 3.42207V8.6252V13.8283L1.3625 14.0314C1.48437 14.2908 1.70937 14.5158 1.96875 14.6377L2.17187 14.7346L3.71875 14.7502C5.225 14.7658 5.26875 14.7689 5.39062 14.8314C5.6125 14.9502 5.71875 15.1283 5.71875 15.3752C5.71875 15.6221 5.6125 15.8002 5.39062 15.9189C5.26875 15.9814 5.23125 15.9846 3.89062 15.9877C3.13437 15.9908 2.40937 15.9814 2.28125 15.9689Z" fill="#C4C4C4"/>
<path d="M10.3125 15.9625C9.49689 15.9187 8.63126 15.65 7.92814 15.2219C6.73126 14.4969 5.87501 13.3687 5.51564 12.0469C5.29064 11.2156 5.28126 10.2094 5.48751 9.39062C6.05626 7.15312 7.98439 5.54062 10.2938 5.375C11.8688 5.26562 13.4625 5.89687 14.5281 7.05L14.7438 7.28437L14.7563 6.72812C14.7656 6.24062 14.7781 6.15625 14.8344 6.04687C14.95 5.82812 15.1281 5.71875 15.375 5.71875C15.6219 5.71875 15.8 5.825 15.9188 6.04687C15.9813 6.16562 15.9844 6.2125 15.9844 6.98437C15.9844 7.8875 15.9688 7.99375 15.7875 8.375C15.6344 8.70312 15.2656 9.07187 14.9375 9.225C14.5594 9.40625 14.4469 9.42187 13.5625 9.42187C12.8063 9.42187 12.7594 9.41875 12.6406 9.35625C12.4188 9.2375 12.3125 9.05937 12.3125 8.8125C12.3125 8.56562 12.4219 8.3875 12.6406 8.27187C12.75 8.21562 12.8344 8.20312 13.3219 8.19375C13.625 8.1875 13.875 8.16875 13.875 8.15312C13.875 8.14062 13.7313 7.98437 13.5531 7.80625C12.75 7 11.7719 6.59062 10.6406 6.59062C9.95001 6.59062 9.38751 6.725 8.76876 7.04062C7.67814 7.59687 6.89689 8.625 6.63439 9.84375C6.55626 10.2187 6.55626 11.125 6.63439 11.5C6.94376 12.9281 7.97501 14.0844 9.35001 14.5469C9.84064 14.7094 10.225 14.7625 10.8281 14.7406C11.5031 14.7187 11.9375 14.6094 12.5156 14.3187C12.7313 14.2094 12.8344 14.175 12.9531 14.175C13.1469 14.1719 13.3188 14.2562 13.45 14.4187C13.5313 14.5156 13.5469 14.5656 13.5563 14.7437C13.5656 14.9344 13.5594 14.9656 13.4719 15.1C13.3875 15.2312 13.3375 15.2687 12.9938 15.4344C12.1406 15.8531 11.2938 16.0187 10.3125 15.9625Z" fill="#C4C4C4"/>
<path d="M14.3906 13.8691C14.1469 13.7816 13.9687 13.5379 13.9687 13.2941C13.9687 13.0129 14.225 12.7285 14.5094 12.6973C14.9875 12.641 15.3344 13.1348 15.1187 13.5629C14.9844 13.8254 14.6531 13.966 14.3906 13.8691Z" fill="#C4C4C4"/>
<path d="M9.4375 12.075C9.30625 12.0187 9.16875 11.8906 9.10625 11.775C9.08125 11.7281 9.0625 11.6062 9.0625 11.5062C9.0625 11.2531 9.14062 11.15 9.63125 10.7375L10.025 10.4062L10.0375 9.52187C10.0469 8.69375 10.05 8.63437 10.1125 8.51562C10.2312 8.29375 10.4094 8.1875 10.6562 8.1875C10.9031 8.1875 11.0812 8.29375 11.2 8.51562C11.2625 8.63437 11.2656 8.6875 11.275 9.61562C11.2875 10.6844 11.2687 10.875 11.1344 11.0344C10.9969 11.1937 10.025 12.0031 9.89062 12.0656C9.74062 12.1344 9.58437 12.1375 9.4375 12.075Z" fill="#C4C4C4"/>
<path d="M15.2062 11.5469C14.775 11.4375 14.6187 10.9094 14.9156 10.5719C15.2781 10.1594 15.9687 10.4187 15.9687 10.9687C15.9687 11.3656 15.5969 11.6469 15.2062 11.5469Z" fill="#C4C4C4"/>
</svg>
