<svg width="44" height="66" viewBox="0 0 44 66" fill="none" xmlns="http://www.w3.org/2000/svg">
<path d="M9.84626 65.2527C7.61114 65.0739 5.15889 63.9116 3.4602 62.264C1.2634 60.1183 0.177769 57.5128 0.190541 54.422C0.203313 52.5572 0.497072 51.3694 1.37835 49.5941C3.02595 46.3117 6.38501 44.0255 10.0251 43.7317C10.6381 43.6806 11.0341 43.6167 10.9191 43.5912C10.7914 43.5657 10.6892 43.4635 10.6892 43.3613C10.6892 43.208 11.5194 43.1825 16.2451 43.1825H21.801V49.3642C21.801 56.044 21.7626 56.5804 21.0985 58.3174C20.0767 61.0507 17.8161 63.3624 15.0956 64.4991C13.448 65.1888 11.8259 65.4187 9.84626 65.2527Z" fill="#03CD81"/>
<path d="M10.5615 22.0574C10.5615 21.9553 10.6637 21.8531 10.7914 21.8275C10.9063 21.802 10.5359 21.7381 9.96119 21.687C5.6953 21.3422 1.99139 18.4685 0.586456 14.4197C-1.1761 9.2981 1.14843 3.65282 6.02738 1.22612C8.22418 0.140493 8.4413 0.102177 15.7725 0.0510884L22.1841 0V10.8818C22.1841 20.4865 22.1586 21.7381 21.9925 21.6743C21.852 21.6232 21.8009 21.687 21.8009 21.9169V22.2362H16.1812C11.4044 22.2362 10.5615 22.2107 10.5615 22.0574Z" fill="#FF4D13"/>
<path d="M30.818 43.3613C28.634 42.9654 26.6032 41.8415 24.9684 40.1428C23.2825 38.3802 22.3373 36.3878 22.0308 33.9483C21.7498 31.7004 22.2735 29.1971 23.4613 27.2046C24.151 26.0424 25.6709 24.4458 26.8076 23.6923C31.1884 20.7675 37.0253 21.4572 40.6398 25.3144C41.5083 26.2467 42.0447 27.0386 42.6194 28.2775C43.3475 29.874 43.5774 30.9596 43.5646 32.8371C43.539 34.6252 43.2325 35.9791 42.479 37.4734C40.2566 41.867 35.5948 44.2171 30.818 43.3613Z" fill="#00BCFF"/>
<path d="M21.8648 21.5721C21.8265 21.4827 21.8137 16.6038 21.8265 10.7414L21.8648 0.0766602H27.8677C33.232 0.0766602 33.9728 0.102204 34.8668 0.306558C38.328 1.12397 41.1634 3.43572 42.5684 6.61598C43.4369 8.57011 43.6796 11.4438 43.1431 13.4874C42.6067 15.4926 41.5849 17.2679 40.1161 18.6729C38.6984 20.0139 37.6383 20.6525 35.7225 21.2911L34.6369 21.6615L28.2764 21.6998C23.1292 21.7382 21.9159 21.7126 21.8648 21.5721Z" fill="#FF7361"/>
<path d="M9.4503 43.438C5.01838 42.7866 1.32724 39.3382 0.382103 34.9573C0.126661 33.7951 0.126661 31.6238 0.382103 30.4616C1.34001 26.0552 5.01838 22.6195 9.47584 21.9809C9.97396 21.917 12.9371 21.8531 16.0918 21.8531H21.8009V32.7094V43.5657L15.9641 43.553C12.7455 43.5402 9.82069 43.4891 9.4503 43.438Z" fill="#B659FF"/>
</svg>
