<svg width="25" height="26" viewBox="0 0 25 26" fill="none" xmlns="http://www.w3.org/2000/svg">
<path d="M4.22282 25.6591C3.13873 25.5504 2.27439 25.1401 1.454 24.3344C0.584774 23.4843 0.155044 22.5649 0.0476121 21.3391C-0.0158707 20.6026 -0.0158707 5.50716 0.0476121 4.77068C0.155044 3.54485 0.584774 2.62548 1.454 1.77531C2.30369 0.939973 3.13873 0.554431 4.31561 0.450632C5.04322 0.386375 19.9568 0.386375 20.6844 0.450632C21.8954 0.559374 22.8037 0.994344 23.6437 1.87417C24.4689 2.73422 24.8498 3.57945 24.9524 4.77068C25.0159 5.50716 25.0159 20.6026 24.9524 21.3391C24.8498 22.5352 24.4689 23.3706 23.6388 24.2405C22.9698 24.9424 22.1787 25.3873 21.2411 25.5949C20.87 25.674 20.5721 25.6838 18.5309 25.6838C16.0209 25.6838 15.9574 25.674 15.7523 25.3972C15.6546 25.2588 15.6497 25.1945 15.6204 22.7033C15.596 20.4691 15.5814 20.1083 15.5081 19.8513C15.4007 19.4806 15.2737 19.2235 15.0344 18.9023L14.844 18.6452L15.1272 18.6156C15.6204 18.5563 16.5189 18.3536 16.895 18.2152C19.2389 17.365 20.3133 15.7636 20.4842 12.8572C20.5672 11.4979 20.2302 10.2968 19.4929 9.33292L19.2243 8.98198L19.3024 8.73483C19.571 7.85995 19.5075 6.67861 19.1462 5.82844L19.0485 5.59119H18.736C18.5699 5.59119 18.3013 5.62579 18.15 5.66533C17.5933 5.81361 16.602 6.27824 15.9183 6.7231C15.7718 6.81701 15.6302 6.89115 15.6009 6.89115C15.5765 6.88621 15.2249 6.81701 14.8196 6.73793C13.2813 6.42158 11.7187 6.42158 10.1804 6.73793C9.78001 6.81701 9.42841 6.88621 9.39911 6.88621C9.37469 6.89115 9.11588 6.74287 8.82777 6.56987C8.28572 6.2387 7.29441 5.79384 6.8012 5.66533C6.64982 5.62579 6.38612 5.59119 6.22009 5.59119H5.91733L5.78548 5.98661C5.46318 6.96035 5.43388 7.87478 5.69758 8.73483L5.77571 8.98198L5.50713 9.33292C4.72092 10.361 4.40839 11.5819 4.53536 13.1142C4.62814 14.2461 4.81859 14.9974 5.20925 15.8031C5.94663 17.3156 7.4165 18.2399 9.61886 18.576L10.1414 18.6551L9.95581 18.9072C9.73117 19.2038 9.49678 19.7524 9.44794 20.0836C9.41376 20.311 9.40399 20.3209 9.15495 20.4148C8.54454 20.6471 7.63136 20.6965 7.16256 20.5186C6.6254 20.3159 6.28846 20.0045 5.80501 19.2581C5.39481 18.6255 4.8137 18.1806 4.19841 18.0175C3.84681 17.9285 3.5001 17.9532 3.36337 18.0768C3.2071 18.2152 3.39267 18.5019 3.82239 18.7985C3.98843 18.9121 4.19841 19.0851 4.29119 19.1791C4.55489 19.4608 4.89672 20.0243 5.09693 20.4988C5.19948 20.741 5.33621 21.0129 5.39481 21.1117C5.64875 21.5071 6.17126 21.8927 6.66447 22.0459C7.27 22.2337 8.47617 22.293 9.19401 22.1695L9.37469 22.1349V23.6276C9.37469 25.3032 9.36493 25.3675 9.0524 25.5652L8.86195 25.6838L6.76214 25.6937C5.60968 25.6987 4.46699 25.6789 4.22282 25.6591Z" fill="white"/>
<path d="M7.88014 21.1361C7.82154 20.9878 7.89967 20.9137 8.10477 20.9137C8.31963 20.9137 8.40265 21.0076 8.3001 21.1361C8.22197 21.235 7.91432 21.235 7.88014 21.1361Z" fill="white"/>
<path d="M8.8372 21.0126C8.79325 20.9335 8.8079 20.9038 8.91045 20.8346C9.06672 20.7308 9.2767 20.7753 9.2767 20.9137C9.2767 21.1015 8.92998 21.1856 8.8372 21.0126Z" fill="white"/>
<path d="M6.90341 20.9928C6.83016 20.9335 6.8204 20.9038 6.86435 20.8297C6.9376 20.7061 7.08898 20.6962 7.22571 20.805C7.45523 20.9928 7.14758 21.1757 6.90341 20.9928Z" fill="white"/>
<path d="M6.13189 20.5133C5.96586 20.3799 5.97563 20.197 6.14654 20.197C6.31258 20.197 6.48349 20.4342 6.39559 20.543C6.31746 20.6418 6.28816 20.6369 6.13189 20.5133Z" fill="white"/>
<path d="M5.497 19.767C5.39934 19.6286 5.39934 19.5594 5.48724 19.4852C5.5849 19.4012 5.77047 19.589 5.75094 19.7422C5.7314 19.8905 5.58979 19.9054 5.497 19.767Z" fill="white"/>
<path d="M4.9697 19.0058C4.92086 18.902 4.92575 18.8723 4.98435 18.8377C5.06736 18.7833 5.30176 18.9959 5.25293 19.0799C5.18944 19.1788 5.0283 19.1392 4.9697 19.0058Z" fill="white"/>
<path d="M4.47647 18.556C4.4081 18.4917 4.44717 18.3928 4.53507 18.3928C4.63761 18.3928 4.75481 18.5065 4.70109 18.556C4.66203 18.6004 4.51553 18.6004 4.47647 18.556Z" fill="white"/>
</svg>
