<svg width="46" height="65" viewBox="0 0 46 65" fill="none" xmlns="http://www.w3.org/2000/svg">
<path d="M4.16571 59.7794L0 12.774H45.7746L41.6044 59.7719L22.8592 65L4.16571 59.7794Z" fill="#E53D20"/>
<path d="M22.8873 61.0039L38.0343 56.7793L41.598 16.6174H22.8873V61.0039Z" fill="#F15123"/>
<path d="M22.8873 34.051H15.3044L14.7806 28.1475H22.8873V22.3824H22.8675H8.51782L8.65504 23.9291L10.0635 39.8158H22.8873V34.051Z" fill="#EDEDED"/>
<path d="M22.8873 49.0232L22.8622 49.03L16.4802 47.2962L16.072 42.6984H12.9709H10.3195L11.1224 51.7503L22.8609 55.0286L22.8873 55.0212V49.0232Z" fill="#EDEDED"/>
<path d="M4.25879 0H7.17102V2.89452H9.8349V0H12.7473V8.76534H9.83502V5.83025H7.17115V8.76534H4.259V0H4.25879Z" fill="white"/>
<path d="M16.5769 2.90674H14.0131V0H22.0541V2.90674H19.4892V8.76534H16.5771V2.90674H16.5769Z" fill="white"/>
<path d="M23.3303 0H26.3669L28.2348 3.07986L30.1008 0H33.1386V8.76534H30.2384V4.42075L28.2348 7.53735H28.1848L26.1798 4.42075V8.76534H23.3303V0Z" fill="white"/>
<path d="M34.588 0H37.501V5.86806H41.5963V8.76534H34.588V0Z" fill="white"/>
<path d="M22.8674 34.0511V39.8159H29.9238L29.2587 47.2927L22.8674 49.0282V55.0259L34.6152 51.7504L34.7013 50.7765L36.048 35.5991L36.1878 34.0511H34.6436H22.8674Z" fill="white"/>
<path d="M22.8674 22.3827V28.1477H36.6909H36.7092L36.8242 26.8518L37.0853 23.9293L37.2223 22.3827H22.8674Z" fill="white"/>
</svg>
