<svg width="25" height="26" viewBox="0 0 25 26" fill="none" xmlns="http://www.w3.org/2000/svg">
<path d="M6.27198 25.6541C4.61118 25.5256 3.20926 24.863 2.01739 23.6616C0.801094 22.4304 0.180735 21.046 0.0439625 19.2611C-0.0146542 18.4799 -0.0146542 7.62229 0.0439625 6.84109C0.180735 5.0562 0.801094 3.6718 2.01739 2.44067C3.23369 1.20954 4.60141 0.581618 6.36479 0.443178C7.13658 0.383847 17.8634 0.383847 18.6352 0.443178C20.3986 0.581618 21.7663 1.20954 22.9826 2.44067C24.1989 3.6718 24.8193 5.0562 24.956 6.84109C25.0147 7.62229 25.0147 18.4799 24.956 19.2611C24.8193 21.046 24.1989 22.4304 22.9826 23.6616C21.7663 24.8927 20.3986 25.5206 18.6352 25.6591C17.9318 25.7134 6.98027 25.7134 6.27198 25.6541ZM19.6219 24.0621C20.5549 23.7901 21.3462 23.3155 21.991 22.6579C22.67 21.9607 23.1243 21.1746 23.3783 20.2451L23.515 19.7506V13.0511V6.3516L23.3783 5.85718C22.8654 3.98329 21.4586 2.56428 19.5975 2.03524L19.1188 1.90174H12.5H5.8812L5.4025 2.03524C4.46952 2.30223 3.66354 2.77194 3.00899 3.44436C2.33001 4.14151 1.87573 4.92765 1.62173 5.85718L1.48496 6.3516V13.0511V19.7506L1.61684 20.2352C1.88062 21.1795 2.34467 21.9953 3.00899 22.6579C3.81985 23.4687 4.80168 23.9829 5.90074 24.1758C6.02286 24.1955 9.06116 24.2104 12.6465 24.2054L19.1676 24.2005L19.6219 24.0621Z" fill="white"/>
<path d="M11.3457 19.8429C10.0317 19.6204 8.67376 18.8985 7.69194 17.9047C6.69057 16.8812 6.00182 15.5364 5.78201 14.1718C5.6892 13.5883 5.6892 12.5105 5.78201 11.9271C6.00182 10.5575 6.70034 9.19287 7.7017 8.18424C8.71284 7.17066 10.0415 6.47351 11.3897 6.25102C11.9661 6.15708 13.0309 6.15708 13.6073 6.25102C14.9555 6.47351 16.2842 7.17066 17.2953 8.18424C18.2967 9.19287 18.9952 10.5575 19.215 11.9271C19.3078 12.5105 19.3078 13.5883 19.215 14.1718C18.9952 15.5364 18.3064 16.8812 17.3051 17.9047C16.3086 18.9183 14.9604 19.6253 13.6073 19.8478C13.0554 19.9368 11.8879 19.9368 11.3457 19.8429ZM13.5829 18.3893C16.0985 17.8701 17.8717 15.66 17.8717 13.0494C17.8717 10.0087 15.5026 7.6107 12.4985 7.6107C9.91937 7.6107 7.7359 9.40548 7.223 11.9518C6.63195 14.8887 8.49791 17.7712 11.3799 18.3843C12.0198 18.5178 12.9332 18.5227 13.5829 18.3893Z" fill="white"/>
<path d="M19.2148 7.6997C18.4821 7.60576 17.808 7.01739 17.598 6.29058C17.2463 5.05946 18.1157 3.79867 19.3711 3.71461C19.9671 3.67506 20.4751 3.87283 20.9 4.29804C21.7939 5.20779 21.6376 6.7059 20.5679 7.3981C20.1527 7.67004 19.7228 7.76398 19.2148 7.6997ZM19.8742 6.14226C20.1673 5.88021 20.1087 5.38578 19.7668 5.20779C19.3858 5.01001 18.9461 5.27701 18.9461 5.7121C18.9461 5.90493 18.9706 5.96426 19.1122 6.10765C19.2539 6.25103 19.3125 6.27575 19.503 6.27575C19.6789 6.27575 19.757 6.24608 19.8742 6.14226Z" fill="white"/>
</svg>
