<svg width="118" height="53" viewBox="0 0 118 53" fill="none" xmlns="http://www.w3.org/2000/svg">
<path d="M5.63472 52.0833C5.30462 51.7625 5.30462 51.7358 5.30462 49.2098C5.30462 47.2719 5.34423 46.6705 5.47627 46.6705C5.5555 46.6705 5.74035 46.4834 5.85919 46.2696C5.97802 46.0424 6.17608 45.8686 6.28171 45.8686C6.38734 45.8686 6.54579 45.7483 6.62501 45.6013C6.75705 45.3607 6.90229 45.334 8.20948 45.334H9.66191L9.6355 40.2954L9.59589 35.2435L7.70773 35.1767C5.15938 35.0831 5.30462 35.2702 5.30462 32.0225V29.5768L5.83278 29.0288C6.11006 28.7348 6.41375 28.4942 6.49297 28.4942C6.55899 28.4942 6.62501 28.4006 6.62501 28.2937C6.62501 28.12 7.53608 28.0932 14.072 28.0932C21.2021 28.0932 21.5322 28.1066 21.8227 28.3472C22.1396 28.6011 22.1396 28.6546 22.1792 31.234C22.2188 33.7867 22.2188 33.8669 21.9548 33.9337C21.7963 33.9738 21.6775 34.0674 21.6775 34.1476C21.6775 34.2277 21.4662 34.495 21.2021 34.7356C20.7796 35.1232 20.6344 35.1767 19.9742 35.1767C19.5648 35.1767 18.9179 35.2168 18.5481 35.2568L17.8483 35.3504V40.3355V45.334H19.4856C21.3078 45.334 21.8359 45.4543 22.0604 45.9488C22.1528 46.1626 22.2056 47.1917 22.2056 48.7421C22.2056 51.121 22.1924 51.2146 21.9415 51.2146C21.7963 51.2146 21.6775 51.3081 21.6775 51.4151C21.6775 51.5353 21.5058 51.7358 21.2814 51.8561C21.0701 51.9764 20.8852 52.1635 20.8852 52.257C20.8852 52.3773 19.3008 52.4174 13.425 52.4174H5.95161L5.63472 52.0833Z" fill="#7743E5"/>
<path d="M25.1501 52.2169C24.8464 52.0031 24.8464 51.9496 24.8464 49.3301C24.8464 47.0581 24.8728 46.6705 25.0444 46.6705C25.1501 46.6705 25.2425 46.5769 25.2425 46.47C25.2425 46.3631 25.4009 46.176 25.6122 46.0423C25.8103 45.9087 26.0215 45.735 26.0743 45.6414C26.1536 45.5078 27.1439 45.4677 30.5241 45.4677C34.7097 45.4677 34.8945 45.4543 35.1454 45.2004C35.4887 44.8529 35.4755 44.7459 35.0926 44.4386C34.8681 44.2514 34.1815 44.1044 32.4914 43.8772C28.6491 43.356 27.8437 43.1422 26.5893 42.2734C25.6914 41.6586 25.4802 41.378 25.1105 40.2687C24.8728 39.5336 24.8464 39.1327 24.8464 35.9652C24.8464 33.0115 24.886 32.4101 25.0576 32.0225C25.3745 31.3543 27.9361 28.962 28.8075 28.5209L29.5338 28.1601L35.4755 28.12C38.7369 28.0932 41.5361 28.1066 41.6945 28.1467C42.3812 28.3204 42.4076 28.4675 42.4076 31.1672V33.6931L41.985 34.1476C41.7474 34.4015 41.4437 34.6421 41.3248 34.6822C41.1928 34.7356 41.0872 34.8425 41.0872 34.9361C41.0872 35.0697 40.3345 35.1098 37.4957 35.1098C34.7493 35.1098 33.9042 35.1499 33.8514 35.2836C33.825 35.3638 33.627 35.444 33.4157 35.444C33.1252 35.444 33.0328 35.5108 33.0328 35.7113C33.0328 36.179 33.5742 36.3528 36.281 36.7003C40.0045 37.1948 41.074 37.5155 42.2095 38.5313C43.4375 39.6272 43.6355 40.5494 43.5695 44.9331C43.5299 48.0471 43.5167 48.2342 43.2394 48.6752C42.8169 49.3435 40.3478 51.5754 39.5687 51.9897L38.9085 52.3506L32.1745 52.3907C26.18 52.4308 25.4141 52.4041 25.1501 52.2169Z" fill="#7743E5"/>
<path d="M46.6989 52.0833L46.3688 51.7625V40.6028C46.3688 29.5768 46.3688 29.4431 46.6329 29.2961C46.7781 29.2159 46.8969 29.0689 46.8969 28.9753C46.8969 28.8684 47.0818 28.7214 47.293 28.6278C47.5175 28.5343 47.6892 28.3739 47.6892 28.2804C47.6892 28.12 48.7059 28.0932 53.8686 28.0932C57.262 28.0932 60.4309 28.1601 60.9195 28.2269C62.8208 28.5076 64.1148 29.3228 64.7618 30.6593C65.3032 31.782 65.4088 32.5571 65.356 35.1232L65.3164 37.4754L64.8542 37.8764C64.4185 38.2372 64.4053 38.2773 64.6298 38.4511C64.7882 38.558 64.8146 38.6515 64.7354 38.7184C64.4977 38.852 64.5637 39.0258 64.8938 39.1327C65.4352 39.3064 66.2934 39.988 66.7028 40.5761C67.4158 41.6319 67.495 42.2734 67.495 46.8442V50.974L66.9668 51.4952C66.6764 51.7893 66.3727 52.0165 66.3066 52.0165C66.2274 52.0165 66.1746 52.11 66.1746 52.2303C66.1746 52.4041 65.7917 52.4308 63.0057 52.3907C60.6422 52.364 59.8103 52.3105 59.6783 52.1769C59.5463 52.0432 59.4934 51.1611 59.4406 48.7421C59.3614 44.6257 59.5198 44.893 57.0639 44.8128C55.5587 44.7727 55.3474 44.7994 55.3474 44.9865C55.3474 45.1068 55.255 45.2004 55.1494 45.2004C55.0437 45.2004 54.9513 45.2672 54.9513 45.334C54.9513 45.4142 54.8325 45.4677 54.6872 45.4677C54.4363 45.4677 54.4231 45.5612 54.4231 48.3411C54.4231 50.7067 54.3967 51.2146 54.2383 51.2146C54.1459 51.2146 53.961 51.3616 53.8422 51.5353C53.7365 51.7225 53.5121 51.8962 53.3668 51.9497C53.2216 51.9897 53.1028 52.1234 53.1028 52.2303C53.1028 52.3907 52.6142 52.4174 50.0659 52.4174H47.0158L46.6989 52.0833ZM56.6678 37.9165C56.6678 37.8096 56.7602 37.716 56.8659 37.716C56.9715 37.716 57.0639 37.6358 57.0639 37.5289C57.0639 37.422 57.1564 37.3151 57.262 37.2616C57.4072 37.2081 57.46 36.9809 57.46 36.3795C57.46 35.6444 57.4204 35.5108 57.0771 35.1633C56.7074 34.7891 56.6282 34.7757 55.5587 34.7757H54.4231V36.4463V38.1169H55.5455C56.4565 38.1169 56.6678 38.0769 56.6678 37.9165Z" fill="#7743E5"/>
<path d="M70.215 52.1368L69.8717 51.8695V46.4968C69.8717 43.4896 69.9377 40.7365 70.0037 40.2553C70.1622 39.3064 70.4791 38.1971 71.0733 36.6468C71.2845 36.0988 71.9315 34.3881 72.5125 32.8512L73.5688 30.0579L74.5723 29.0822L75.589 28.0932H80.5537C85.2411 28.0932 85.5448 28.1066 85.9409 28.3605C86.469 28.6813 86.5483 28.855 87.5386 31.5013C87.9743 32.6774 88.6477 34.455 89.0174 35.444C90.6811 39.8277 90.6283 39.5604 90.6943 45.7751C90.7603 51.0007 90.7471 51.1077 90.4962 51.1745C90.351 51.2146 90.2057 51.3482 90.1661 51.4952C90.1265 51.6289 89.9549 51.8026 89.77 51.8695C89.5984 51.9363 89.4135 52.0967 89.3739 52.2036C89.2947 52.3907 88.8986 52.4174 86.337 52.4174C83.551 52.4174 83.3529 52.4041 83.036 52.1368L82.6795 51.8695L82.6531 49.3034L82.6135 46.7373L80.6065 46.6972C78.89 46.6705 78.5863 46.6972 78.5863 46.8576C78.5863 46.9779 78.4014 47.0982 78.1242 47.1516L77.662 47.2318V49.2232C77.662 50.5864 77.6224 51.2146 77.5168 51.2146C77.4376 51.2146 77.2527 51.3616 77.1207 51.5353C76.9754 51.7225 76.7509 51.9096 76.6057 51.9497C76.4605 52.0031 76.3416 52.1234 76.3416 52.2303C76.3416 52.3907 75.8663 52.4174 73.45 52.4174C70.73 52.4174 70.5451 52.4041 70.215 52.1368ZM81.3591 39.5203C81.3591 39.1995 81.4251 39.0525 81.5572 39.0525C81.8213 39.0525 81.8213 39.1193 81.2799 37.3284C80.7914 35.7113 80.5009 35.1232 80.3292 35.4039C80.2764 35.4841 80.0915 35.5776 79.9067 35.591C79.6162 35.6444 79.5238 35.8315 78.956 37.6492C78.6127 38.7585 78.3222 39.694 78.3222 39.7475C78.3222 39.8544 79.0616 39.9346 80.4084 39.9613L81.3591 39.988V39.5203Z" fill="#7743E5"/>
<path d="M94.2329 52.0833L93.9028 51.7625V40.6028C93.9028 29.5767 93.9028 29.4431 94.1669 29.2961C94.3122 29.2159 94.431 29.0689 94.431 28.9753C94.431 28.8684 94.6158 28.7214 94.8271 28.6278C95.0516 28.5343 95.2232 28.3739 95.2232 28.267C95.2232 28.0932 96.1079 28.0799 101.733 28.1333C107.437 28.1734 108.321 28.2135 109.021 28.414C110.87 28.962 111.913 29.7772 112.626 31.234C113.26 32.5037 113.339 33.2387 113.286 37.3819C113.233 41.9527 113.299 41.7522 111.24 43.7169C109.206 45.6548 109.299 45.628 105.324 45.7483C103.515 45.8018 102.01 45.8552 101.997 45.8552C101.97 45.8686 101.957 47.0714 101.957 48.5416C101.957 50.68 101.918 51.2146 101.786 51.2146C101.68 51.2146 101.535 51.3616 101.455 51.5487C101.376 51.7358 101.218 51.8828 101.099 51.8828C100.993 51.8828 100.835 52.0031 100.742 52.1501C100.584 52.4041 100.426 52.4174 97.5603 52.4174H94.5498L94.2329 52.0833ZM104.902 38.9857C105.469 38.7451 105.813 37.1948 105.535 36.1523C105.285 35.2168 104.928 35.043 103.33 35.043H101.957V37.021C101.957 38.1169 101.997 39.0525 102.063 39.1059C102.168 39.2396 104.558 39.1327 104.902 38.9857Z" fill="#7743E5"/>
<path d="M7.8794 25.8087C5.06697 25.6349 3.11279 24.9266 1.83201 23.6569C0.604044 22.414 0.419189 21.5453 0.419189 16.8675C0.419189 14.0475 0.458801 13.259 0.59084 13.259C0.683268 13.259 0.815307 13.1253 0.881326 12.965C0.96055 12.7912 1.1454 12.6041 1.31706 12.5239C1.4755 12.4571 1.64715 12.2834 1.68676 12.1497C1.75278 11.9225 1.96405 11.9091 4.65765 11.9492C8.43396 12.0027 8.11707 11.7087 8.2095 15.2637C8.27552 17.8031 8.28872 17.9501 8.566 18.2308C8.93571 18.5916 10.3485 18.7386 10.9955 18.4713C11.7878 18.1372 11.7746 18.2708 11.7746 10.0648V2.58041L12.3027 2.03245C12.58 1.73842 12.8837 1.49785 12.9629 1.49785C13.0289 1.49785 13.0949 1.4043 13.0949 1.29738C13.0949 1.12364 13.5307 1.09691 16.1979 1.09691H19.314L19.6441 1.43103L19.9742 1.76515L19.9346 11.3478C19.895 20.2221 19.8818 20.9839 19.6573 21.4918C19.4064 22.0799 17.0033 24.4588 16.1318 24.98C15.3528 25.4478 14.2569 25.675 12.0386 25.822C10.9163 25.8889 9.87319 25.9423 9.72795 25.929C9.5827 25.929 8.75086 25.8755 7.8794 25.8087Z" fill="#7743E5"/>
<path d="M23.5392 25.2465C23.3412 25.1529 23.1695 24.899 23.1035 24.6317C23.0375 24.3911 22.9979 21.7716 23.0243 18.818C23.0903 12.4162 22.9582 13.0577 25.2953 6.92317C26.8006 2.96715 26.827 2.91369 27.4476 2.37909C27.7909 2.08506 28.2398 1.67075 28.4379 1.47027L28.7812 1.09605H33.6798C39.3443 1.09605 39.3443 1.09605 39.78 2.09842C40.0705 2.76667 41.1532 5.6134 42.4076 8.98137C43.8468 12.8438 43.7808 12.4028 43.8336 18.711C43.8732 23.5091 43.8468 24.2174 43.6752 24.2174C43.5695 24.2174 43.4507 24.3377 43.3979 24.4713C43.3583 24.605 43.147 24.7921 42.9357 24.8856C42.7113 24.9792 42.5396 25.1396 42.5396 25.2465C42.5396 25.4069 42.0643 25.4336 39.4367 25.3935C36.6771 25.3534 36.3206 25.3267 36.1093 25.1128C35.8981 24.9124 35.8585 24.5382 35.8056 22.3062L35.7396 19.7401L33.3365 19.7L30.9202 19.6733V21.9454C30.9202 24.1238 30.907 24.2174 30.6561 24.2174C30.5109 24.2174 30.392 24.3109 30.392 24.4179C30.392 24.5248 30.2336 24.7119 30.0355 24.8455C29.8243 24.9792 29.613 25.1529 29.5602 25.2465C29.415 25.4871 24.0014 25.4871 23.5392 25.2465ZM35.1454 12.7102C35.1454 12.6166 34.8682 11.6544 34.5249 10.5451C34.0495 9.0081 33.8251 8.50023 33.5874 8.33985C33.3101 8.15274 33.2573 8.15274 33.0196 8.40667C32.8612 8.55369 32.4783 9.55606 32.1218 10.7589L31.4748 12.8572H33.3101C34.5909 12.8572 35.1454 12.8171 35.1454 12.7102Z" fill="#7743E5"/>
<path d="M47.4119 25.1663L47.095 24.9124L47.0554 13.6858C47.029 2.51274 47.029 2.44591 47.2931 2.36572C47.4383 2.32563 47.5572 2.19198 47.5572 2.08506C47.5572 1.97814 47.7288 1.77767 47.9533 1.65738C48.1645 1.5371 48.3494 1.34999 48.3494 1.25643C48.3494 1.12278 49.0096 1.09605 51.6504 1.12278L54.9514 1.16288L55.2683 1.497C55.5455 1.79103 56.3114 3.10079 57.8562 5.97426C58.2259 6.6826 58.7673 7.63151 58.8597 7.75179C58.8729 7.77852 59.0182 7.7117 59.1634 7.61814C59.3219 7.52459 59.9557 6.48212 60.5894 5.30601C61.5929 3.42155 61.8438 3.04733 62.7681 2.13852L63.8112 1.09605H66.9537C69.9378 1.09605 70.1227 1.10942 70.4528 1.37672L70.7961 1.64402V12.9374C70.7961 21.09 70.7565 24.2174 70.6508 24.2174C70.5716 24.2174 70.3868 24.3644 70.2547 24.5381C70.1095 24.7253 69.885 24.9124 69.7398 24.9525C69.5945 25.0059 69.4757 25.1262 69.4757 25.2331C69.4757 25.3935 68.9871 25.4202 66.4388 25.4202H63.3887L63.0718 25.0861L62.7417 24.7654V19.5129C62.7285 14.2605 62.7285 14.2605 62.4776 14.7283C62.3324 14.9822 62.2267 15.156 62.2135 15.1159C62.2135 15.0624 61.659 15.5703 60.9988 16.2252L59.7708 17.428L58.5164 17.3745C56.7603 17.281 56.6547 17.2142 55.7436 15.5703C55.4531 15.0357 55.1494 14.5946 55.0834 14.5946C55.0042 14.5946 54.9514 16.3454 54.9514 19.3392C54.9514 23.1749 54.9118 24.0971 54.7665 24.1773C54.6741 24.2308 54.5288 24.4179 54.4364 24.5916C54.3572 24.752 54.1987 24.8856 54.0931 24.8856C53.9875 24.8856 53.829 25.0059 53.7366 25.1529C53.5782 25.4069 53.4197 25.4202 50.6469 25.4202C47.9665 25.4202 47.6892 25.3935 47.4119 25.1663Z" fill="#7743E5"/>
<path d="M74.295 25.0861L73.9649 24.7654V19.6332C73.9649 12.7236 73.8857 13.178 76.4605 6.38859C77.7544 2.9939 77.7941 2.90034 78.4146 2.37911C78.7579 2.08508 79.2069 1.67077 79.4049 1.47029L79.7482 1.09607H84.6865C90.7471 1.09607 90.2981 0.962425 91.0904 2.96717C93.0842 7.99238 94.3517 11.6276 94.6818 13.2314C94.8799 14.2204 94.8799 24.2174 94.6818 24.2174C94.6026 24.2174 94.4178 24.3644 94.2857 24.5382C94.1405 24.7253 93.916 24.9124 93.7708 24.9525C93.6255 25.0059 93.5067 25.1262 93.5067 25.2331C93.5067 25.4069 93.071 25.4336 90.4038 25.3935C87.6442 25.3534 87.2877 25.3267 87.0764 25.1129C86.8651 24.9124 86.8387 24.5649 86.7991 22.2795L86.7595 19.6733H84.3168H81.8873V21.9454C81.8873 24.1239 81.8741 24.2174 81.6232 24.2174C81.4779 24.2174 81.3591 24.311 81.3591 24.4179C81.3591 24.5248 81.2007 24.7119 81.0026 24.8456C80.7913 24.9792 80.5801 25.153 80.5273 25.2465C80.448 25.3802 79.7218 25.4203 77.5168 25.4203H74.6119L74.295 25.0861ZM85.2939 12.9107C85.5051 12.8439 85.5844 12.7236 85.5844 12.4429C85.5844 12.2023 85.6504 12.0553 85.7692 12.0553C85.9012 12.0553 85.822 11.641 85.4391 10.358C85.1486 9.43579 84.8581 8.5938 84.7789 8.48688C84.5809 8.25968 84.0659 8.25968 83.8678 8.51361C83.7754 8.62053 83.4189 9.63627 83.0756 10.7723L82.4418 12.8439L83.5245 12.8973C84.1055 12.9107 84.6865 12.9508 84.7921 12.9641C84.8978 12.9775 85.1222 12.9508 85.2939 12.9107Z" fill="#7743E5"/>
<path d="M98.5242 25.2465C98.3262 25.1529 98.1545 24.9124 98.1149 24.6852C98.0621 24.458 98.0225 19.3659 98.0093 13.3651C97.9961 2.5662 97.9961 2.44591 98.2601 2.36572C98.4054 2.32563 98.5242 2.19198 98.5242 2.08506C98.5242 1.97814 98.6959 1.77767 98.9203 1.65738C99.1316 1.5371 99.3165 1.34999 99.3165 1.2698C99.3165 1.13615 100.029 1.09605 102.419 1.09605H105.535L105.852 1.43018L106.182 1.75094V10.1174V18.4705H107.899H109.615V18.0161C109.615 17.7621 109.682 17.5082 109.748 17.4681C109.827 17.4146 109.88 16.5593 109.88 15.3163C109.88 14.0066 109.932 13.2581 110.012 13.2581C110.091 13.2581 110.21 13.1111 110.289 12.9374C110.368 12.7636 110.579 12.5498 110.751 12.4696C110.923 12.3894 111.068 12.229 111.068 12.1221C111.068 11.9217 111.398 11.9083 114.026 11.9484C116.719 11.9885 117.01 12.0152 117.261 12.2424C117.538 12.4963 117.538 12.5765 117.538 18.2834C117.538 23.0145 117.511 24.0837 117.353 24.1773C117.261 24.2308 117.115 24.4179 117.023 24.5916C116.944 24.752 116.785 24.8856 116.68 24.8856C116.574 24.8856 116.416 25.0059 116.323 25.1529C116.151 25.4202 116.006 25.4202 107.503 25.4202C100.808 25.4202 98.7751 25.3801 98.5242 25.2465Z" fill="#7743E5"/>
<path d="M21.7831 48.996C21.8359 46.4967 21.7435 46.0958 21.1229 45.882C20.8984 45.8018 19.9742 45.7349 19.0763 45.7349H17.4522L17.4786 40.2954L17.5182 34.8425L18.152 34.8158C18.7594 34.7891 18.7726 34.8024 18.7726 35.19C18.7726 35.4439 18.7066 35.5776 18.5745 35.5776C18.4029 35.5776 18.3765 36.179 18.3765 40.242V44.9063L20.2118 44.9598C22.7602 45.0132 22.6018 44.8128 22.6018 48.0604C22.6018 50.1587 22.5621 50.68 22.3905 50.9205C22.2849 51.0809 22.0868 51.2146 21.968 51.2146C21.7699 51.2146 21.7435 51.0141 21.7831 48.996Z" fill="#7C82FF"/>
<path d="M54.0271 47.8065V44.3985L54.6873 44.4118C55.3211 44.4386 55.3475 44.4519 55.3475 44.8128C55.3475 45.0667 55.2815 45.2004 55.1626 45.2004C55.0042 45.2004 54.9646 45.6548 54.925 47.9268C54.8853 50.3859 54.8589 50.68 54.6345 50.9339C54.0535 51.5754 54.0271 51.4284 54.0271 47.8065Z" fill="#7C82FF"/>
<path d="M67.0989 47.165C67.0989 42.6744 67.0197 42.0329 66.3067 40.977C65.7257 40.135 64.8939 39.6004 63.5471 39.2262C63.4282 39.1995 63.5339 39.0257 63.8772 38.7317C64.2205 38.4377 64.4581 38.3174 64.5902 38.3842C64.6958 38.4377 65.0919 38.6248 65.4616 38.7852C66.2935 39.146 67.1121 39.9346 67.4686 40.6964C67.9836 41.8057 68.0496 42.5407 67.9968 46.7106L67.9572 50.7067L67.6403 50.9606C67.4686 51.0943 67.2838 51.2146 67.2178 51.2146C67.1517 51.2146 67.0989 49.437 67.0989 47.165Z" fill="#7C82FF"/>
<path d="M77.2659 48.7421V46.2695L77.9261 46.2829C78.56 46.3096 78.5864 46.323 78.5864 46.6839C78.5864 46.9378 78.5203 47.0714 78.3883 47.0714C78.2166 47.0714 78.1902 47.3521 78.1902 48.7955C78.1902 50.3325 78.1638 50.5463 77.9129 50.8671C77.7677 51.0542 77.5564 51.2146 77.4508 51.2146C77.2923 51.2146 77.2659 50.8003 77.2659 48.7421Z" fill="#7C82FF"/>
<path d="M90.2982 46.0423C90.2322 40.0682 90.2586 40.2019 88.7798 36.2458C85.9409 28.6813 86.0994 29.0288 85.4524 28.6947C85.1091 28.5209 84.3564 28.4942 80.1312 28.5209C75.589 28.561 75.2061 28.5476 75.325 28.3472C75.4042 28.2269 75.6287 28.0264 75.8267 27.9061C76.3549 27.5987 85.7825 27.5854 86.3766 27.8928C86.852 28.1467 86.9972 28.414 87.8423 30.6727C91.4338 40.2152 91.1301 38.8654 91.1301 45.4409C91.1301 50.5062 91.1169 50.6933 90.866 50.9473C90.7207 51.0943 90.5491 51.2146 90.4831 51.2146C90.4038 51.2146 90.3378 49.0494 90.2982 46.0423Z" fill="#7C82FF"/>
<path d="M101.588 48.3144L101.627 45.4008L102.261 45.3875L102.882 45.3607V45.8151C102.882 46.1359 102.816 46.2695 102.683 46.2695C102.512 46.2695 102.485 46.5903 102.485 48.3946C102.485 50.3325 102.459 50.5463 102.208 50.8671C102.063 51.0542 101.852 51.2146 101.746 51.2146C101.588 51.2146 101.561 50.7735 101.588 48.3144Z" fill="#7C82FF"/>
<path d="M42.4472 49.3435C43.0678 48.2609 43.1999 47.3922 43.1999 44.5054C43.1999 43.062 43.1338 41.5517 43.0546 41.1641C42.7773 39.8277 42.0115 38.8654 40.6911 38.1838C39.7272 37.6893 38.8426 37.4888 35.8849 37.1012C34.3929 36.9141 33.0989 36.6735 32.9404 36.5666C32.3859 36.2191 32.3727 35.19 32.914 34.896C33.1385 34.7757 33.2177 34.7891 33.3101 34.9227C33.4026 35.0697 33.429 35.0564 33.429 34.8826C33.429 34.5351 33.627 34.5886 33.8779 34.9895C34.0099 35.1767 34.2344 35.3771 34.3929 35.444C34.6305 35.5375 34.6041 35.5642 34.1684 35.5642C33.7855 35.5776 33.6798 35.6177 33.7855 35.7246C33.8647 35.8048 35.1719 36.0454 36.6903 36.2592C39.7272 36.6869 40.6779 36.9007 41.5098 37.3284C42.9226 38.0501 43.6092 38.9456 43.9261 40.4692C44.1505 41.5517 44.1902 45.5746 43.9921 46.6839C43.8204 47.6328 43.1602 48.9425 42.5793 49.4905L42.1039 49.9449L42.4472 49.3435Z" fill="#7C82FF"/>
<path d="M26.0347 45.735C26.0347 45.6681 26.1536 45.481 26.2988 45.334C26.5497 45.0801 26.7477 45.0667 30.4977 45.04C32.6499 45.04 34.5249 45.04 34.6701 45.0533C34.8814 45.0667 34.8946 45.04 34.7493 44.8662C34.6569 44.7593 34.4325 44.6658 34.2476 44.6658C34.0627 44.6658 33.9439 44.6257 33.9967 44.5856C34.0363 44.5321 34.4721 44.5455 34.9474 44.5989C35.7396 44.6791 35.8057 44.7059 35.8057 45.0133C35.8057 45.187 35.6868 45.4543 35.5416 45.6013C35.2907 45.8552 35.1059 45.8686 30.6561 45.8686C27.6588 45.8686 26.0347 45.8151 26.0347 45.735Z" fill="#7C82FF"/>
<path d="M6.625 45.628C6.625 45.5612 6.70422 45.4008 6.80986 45.2538C6.9683 45.04 7.19277 44.9865 8.13026 44.9464C8.98852 44.9197 9.2658 44.8662 9.2658 44.7192C9.2658 44.5989 9.41105 44.5321 9.66192 44.5321C10.0448 44.5321 10.058 44.5588 10.058 45.1335V45.735H8.34152C7.40404 45.735 6.625 45.6815 6.625 45.628Z" fill="#7C82FF"/>
<path d="M112.111 42.514C112.784 41.2577 112.917 40.4023 112.917 36.9542C112.917 33.5595 112.824 32.8512 112.23 31.6349C111.517 30.1782 110.474 29.3629 108.625 28.8149C107.939 28.6145 107.041 28.5744 101.535 28.5343C94.9196 28.4675 94.8668 28.4675 95.461 27.9195C95.6854 27.719 96.306 27.6923 101.772 27.6923C108.11 27.7057 109.087 27.7725 110.434 28.3071C111.966 28.9352 113.062 30.2049 113.524 31.929C113.735 32.7041 113.775 33.3323 113.775 36.179C113.775 39.8143 113.709 40.2687 113.022 41.6052C112.811 42.0195 112.428 42.5675 112.177 42.808L111.728 43.2491L112.111 42.514Z" fill="#7C82FF"/>
<path d="M77.7149 40.242C77.6489 40.1217 79.1013 35.4306 79.3258 35.0831C79.5766 34.6822 80.3029 34.6955 80.2897 35.0965C80.2764 35.6043 80.118 35.8449 79.9067 35.7113C79.7483 35.6043 79.6163 35.8984 79.1541 37.3551C78.8372 38.3308 78.5863 39.1995 78.5863 39.2931C78.5863 39.4133 78.9429 39.4534 79.9067 39.4534C81.0159 39.4534 81.2271 39.4133 81.2271 39.2396C81.2271 38.9589 82.3495 39.0258 82.3495 39.3198C82.3627 39.4267 82.4419 39.6673 82.5343 39.841C82.6796 40.095 82.6796 40.1751 82.5343 40.2821C82.3363 40.4157 77.8073 40.3756 77.7149 40.242Z" fill="#7C82FF"/>
<path d="M101.667 39.5069C101.601 39.4534 101.561 38.3308 101.561 37.021V34.6421H102.142C102.631 34.6421 102.736 34.6955 102.802 34.9494C102.921 35.3771 102.908 35.444 102.697 35.444C102.433 35.444 102.406 35.6444 102.459 37.2616L102.499 38.6515H103.819C104.889 38.6515 105.126 38.6114 105.126 38.4511C105.126 38.3174 105.258 38.2506 105.522 38.2506C105.747 38.2506 105.918 38.3174 105.918 38.3842C105.918 38.6649 105.536 39.2931 105.298 39.3866C104.968 39.5336 101.786 39.6405 101.667 39.5069Z" fill="#7C82FF"/>
<path d="M54.0271 36.4463V34.3748H54.6873C55.3343 34.3748 55.3475 34.3881 55.3475 34.7757C55.3475 35.043 55.2815 35.1767 55.1494 35.1767C54.991 35.1767 54.9514 35.4039 54.9514 36.433V37.7026L56.0473 37.7427C57.0508 37.7828 57.1432 37.7561 57.0904 37.5556C57.0508 37.3685 57.1168 37.315 57.4601 37.315C57.8298 37.315 57.8694 37.3418 57.7902 37.6224C57.7374 37.7828 57.5657 38.0501 57.4205 38.2239C57.1696 38.4912 57.0376 38.5179 55.5852 38.5179H54.0271V36.4463Z" fill="#7C82FF"/>
<path d="M64.6694 37.6358C64.9599 36.9676 65.0919 33.5595 64.8675 32.4903C64.3789 30.2316 62.9925 28.9887 60.5234 28.6278C60.0348 28.561 56.9451 28.4942 53.6706 28.4942C47.3459 28.4942 47.3063 28.4942 47.9401 27.9061C48.1645 27.6923 48.7323 27.6789 54.9645 27.719C61.5005 27.7591 61.7778 27.7725 62.5832 28.0531C64.1016 28.5744 64.9863 29.4565 65.5541 31.0068C65.8974 31.9557 66.0294 34.8024 65.7785 35.9785C65.5937 36.8874 65.1712 37.6759 64.7486 37.9566L64.4317 38.1704L64.6694 37.6358Z" fill="#7C82FF"/>
<path d="M21.7435 31.4879C21.7435 29.0421 21.7435 29.0021 21.4266 28.7481C21.1361 28.5076 20.806 28.4942 13.874 28.4942C7.6417 28.4942 6.625 28.4675 6.625 28.3071C6.625 28.2002 6.75704 28.013 6.91549 27.9061C7.17956 27.719 8.13025 27.6923 14.6398 27.6923C21.9019 27.6923 22.0736 27.6923 22.3377 27.9596C22.5885 28.2135 22.6017 28.4006 22.6017 30.8331C22.6017 33.2655 22.5885 33.4526 22.3377 33.7065C21.7831 34.2678 21.7435 34.1208 21.7435 31.4879Z" fill="#7C82FF"/>
<path d="M42.0115 31.528C42.0115 30.1915 41.9587 29.0288 41.9059 28.9486C41.6286 28.5209 41.2061 28.4942 35.9773 28.4942C30.2864 28.4942 29.613 28.561 28.1738 29.2293L27.4344 29.5767L27.7249 29.256C28.187 28.7615 29.2169 28.2536 30.3393 27.9596C31.2767 27.719 31.8049 27.6923 36.8224 27.6923H42.2888L42.6057 28.0264C42.9358 28.3472 42.9358 28.3739 42.9358 30.793C42.9358 33.3991 42.8698 33.7199 42.2756 33.8803C42.0115 33.9471 42.0115 33.8936 42.0115 31.528Z" fill="#7C82FF"/>
<path d="M30.4977 21.7449L30.5373 19.2724H31.1182C31.686 19.2724 31.7124 19.2857 31.7124 19.6733C31.7124 19.9406 31.6464 20.0743 31.5143 20.0743C31.3427 20.0743 31.3163 20.3549 31.3163 21.8518C31.3163 23.7095 31.1843 24.2174 30.6825 24.2174C30.4845 24.2174 30.4581 23.9902 30.4977 21.7449Z" fill="#7C82FF"/>
<path d="M43.4375 18.9113C43.3847 12.8303 43.4375 13.2312 42.0115 9.38215C40.7571 6.01418 39.6744 3.16745 39.3839 2.4992C38.9482 1.49683 38.935 1.49683 33.3629 1.49683C30.194 1.49683 28.5435 1.45674 28.5435 1.36318C28.5435 1.283 28.7416 1.10925 28.9792 0.962237C29.3886 0.694938 29.5998 0.694938 34.4457 0.721668L39.5028 0.761763L39.8461 1.10925C40.2158 1.48347 43.1206 8.95447 43.8997 11.5205L44.3222 12.9239L44.3618 18.203C44.4014 23.4287 44.4014 23.4955 44.1241 23.8564C43.4903 24.6716 43.4771 24.6048 43.4375 18.9113Z" fill="#7C82FF"/>
<path d="M54.5552 18.4037C54.5552 15.2094 54.6081 12.5899 54.6609 12.5899C54.7797 12.5899 55.3474 13.7126 55.3474 13.9531C55.3474 14.0333 55.4267 14.167 55.5323 14.2472C55.6643 14.3407 55.7436 14.8219 55.7964 15.7307C55.8756 16.9469 55.8624 17.0404 55.6907 16.733C55.5191 16.439 55.4927 16.7731 55.4531 20.0475L55.4135 23.7095L55.0966 23.9635C54.9249 24.0971 54.7401 24.2174 54.6741 24.2174C54.6081 24.2174 54.5552 21.7048 54.5552 18.4037Z" fill="#7C82FF"/>
<path d="M70.3999 13.1379V2.04498L70.0566 1.77768C69.7265 1.51038 69.5417 1.49702 66.6236 1.49702C64.8147 1.49702 63.5339 1.44356 63.5339 1.37674C63.5339 1.30991 63.6923 1.1228 63.8772 0.975787C64.2073 0.708488 64.3921 0.695123 67.4422 0.695123C70.4923 0.695123 70.6772 0.708488 70.9281 0.962422C71.1921 1.22972 71.1921 1.40346 71.1921 12.4295C71.1921 22.3463 71.1657 23.6561 70.9809 23.9234C70.8752 24.0838 70.6904 24.2174 70.5848 24.2174C70.4263 24.2174 70.3999 22.7072 70.3999 13.1379Z" fill="#7C82FF"/>
<path d="M81.4912 21.7449V19.2724H82.0854C82.6532 19.2724 82.6796 19.2857 82.6796 19.6733C82.6796 19.9406 82.6135 20.0743 82.4815 20.0743C82.3099 20.0743 82.2834 20.3549 82.2834 21.8518C82.2834 23.6828 82.1514 24.2174 81.6761 24.2174C81.5176 24.2174 81.4912 23.8165 81.4912 21.7449Z" fill="#7C82FF"/>
<path d="M94.431 19.2722C94.431 14.2603 94.3914 13.8193 93.8765 11.9883C93.6124 11.0661 91.8034 6.14783 90.6943 3.36793C89.9021 1.36318 90.3378 1.49683 84.3697 1.49683C81.1743 1.49683 79.5106 1.45674 79.5106 1.36318C79.5106 1.283 79.7087 1.10925 79.9463 0.962237C80.3557 0.694938 80.5669 0.694938 85.4128 0.721668L90.4698 0.761763L90.8132 1.10925C91.0376 1.34982 91.6714 2.84669 92.873 5.98745C95.4345 12.7635 95.2629 11.8948 95.3157 18.203C95.3685 23.4421 95.3685 23.4955 95.0912 23.8564C94.4442 24.685 94.431 24.6048 94.431 19.2722Z" fill="#7C82FF"/>
<path d="M117.142 18.564C117.142 12.9775 117.142 12.8973 116.864 12.6434C116.614 12.4162 116.35 12.3894 113.828 12.3894C111.147 12.3894 111.055 12.3761 111.094 12.1221C111.174 11.5875 111.623 11.5207 114.593 11.5474C117.313 11.5875 117.406 11.6009 117.696 11.8949L118 12.2023V17.9493V23.7095L117.683 23.9635C117.511 24.0971 117.327 24.2174 117.261 24.2174C117.195 24.2174 117.142 21.7716 117.142 18.564Z" fill="#7C82FF"/>
<path d="M18.6934 22.5067C18.8915 22.1859 19.1688 21.4642 19.314 20.9163C19.5517 19.954 19.5649 19.3659 19.5649 11.0262V2.1519L19.2348 1.83114L18.9179 1.49702H15.9998C13.5571 1.49702 13.095 1.47029 13.095 1.30991C13.095 1.20299 13.227 1.01588 13.3855 0.908962C13.6363 0.735218 14.1909 0.695123 16.7657 0.695123H19.8422L20.1723 1.02925L20.5024 1.36337L20.4628 10.4783C20.4232 18.8982 20.3967 19.66 20.1723 20.3416C19.8554 21.3172 19.4197 22.0389 18.8255 22.6136L18.3501 23.0814L18.6934 22.5067Z" fill="#7C82FF"/>
<path d="M8.53964 18.8714C7.93226 18.6309 7.87944 18.4304 7.81342 15.6505C7.721 12.1221 8.01148 12.4028 4.42002 12.3627C2.92798 12.336 1.6736 12.3093 1.6472 12.2825C1.62079 12.2558 1.71322 12.082 1.85846 11.9083L2.10933 11.5875H5.09342C7.77381 11.5875 8.09071 11.6143 8.30197 11.8281C8.51323 12.0286 8.55284 12.4028 8.60566 14.7283L8.67168 17.4013L9.02818 17.7488C9.33187 18.0562 9.51673 18.123 10.375 18.1765C11.2464 18.2299 11.3785 18.2032 11.3785 18.0161C11.3785 17.8691 11.4973 17.8022 11.7746 17.8022C11.9991 17.8022 12.1707 17.829 12.1707 17.8691C12.1707 18.1364 11.735 18.7111 11.4445 18.8447C11.0616 19.0184 8.94896 19.0452 8.53964 18.8714Z" fill="#7C82FF"/>
<path d="M105.786 10.5184V2.1519L105.456 1.83114L105.139 1.49702H102.221C99.7786 1.49702 99.3165 1.47029 99.3165 1.30991C99.3165 1.20299 99.4485 1.01588 99.607 0.908962C99.8578 0.735218 100.412 0.695123 102.961 0.695123H106.037L106.301 1.04261C106.579 1.3901 106.579 1.51038 106.579 9.72982V18.0695H107.965C109.114 18.0695 109.351 18.0294 109.351 17.8691C109.351 17.7221 109.497 17.6686 109.84 17.6686C110.196 17.6686 110.289 17.7087 110.183 17.8156C110.078 17.9225 110.064 18.0294 110.17 18.2032C110.249 18.3368 110.276 18.5373 110.236 18.6576C110.157 18.8447 109.866 18.8714 107.965 18.8714H105.786V10.5184Z" fill="#7C82FF"/>
<path d="M61.2892 15.8777C61.2892 15.744 62.8341 12.8572 63.0189 12.6567C63.1906 12.483 63.1642 12.9508 62.9925 13.2849C62.8869 13.4854 62.8869 13.5388 62.9925 13.472C63.283 13.2849 63.1246 14.1269 62.7153 14.9822C62.2927 15.8242 62.2795 15.8376 62.2399 15.4099L62.2003 14.9689L61.7514 15.4901C61.5005 15.7708 61.3024 15.9445 61.2892 15.8777Z" fill="#7C82FF"/>
<path d="M30.9599 13.178C30.8674 12.9374 32.3198 8.31313 32.5839 8.03247C32.8612 7.71171 33.561 7.68498 33.561 7.99238C33.561 8.33986 33.2969 8.71408 33.0593 8.71408C32.8876 8.71408 32.716 9.10167 32.3198 10.4248C32.0426 11.3603 31.7785 12.2023 31.7521 12.2959C31.6993 12.4162 32.0162 12.4563 33.0989 12.4563C34.3004 12.4563 34.4985 12.4295 34.4325 12.2558C34.3797 12.0954 34.4721 12.0553 34.921 12.0553C35.4624 12.0553 35.4888 12.0687 35.6472 12.6033C35.7396 12.9107 35.7793 13.1913 35.7396 13.2448C35.5812 13.4052 31.0259 13.3383 30.9599 13.178Z" fill="#7C82FF"/>
<path d="M81.8873 13.1245C81.9005 12.7102 83.3266 8.27304 83.5378 8.04584C83.6567 7.92555 83.8943 7.81863 84.066 7.81863C84.3433 7.81863 84.3961 7.87209 84.3961 8.19285C84.3961 8.48688 84.3168 8.62053 84.0924 8.70072C83.8415 8.79427 83.6963 9.11503 83.2869 10.4649C83.0097 11.3603 82.7588 12.1756 82.7192 12.2825C82.6664 12.4162 82.9436 12.4563 84.066 12.4563C85.2675 12.4563 85.4656 12.4295 85.3996 12.2558C85.3467 12.0954 85.4392 12.0553 85.8881 12.0553C86.4295 12.0553 86.4559 12.0687 86.6143 12.6033C86.7068 12.9107 86.7464 13.1913 86.7068 13.2448C86.6539 13.2849 85.558 13.325 84.2508 13.325C82.2438 13.325 81.8873 13.2983 81.8873 13.1245Z" fill="#7C82FF"/>
<path d="M58.2127 7.75181C58.041 7.43105 57.6977 6.81626 57.4601 6.37522C55.8228 3.34138 55.1494 2.192 54.8721 1.89797L54.5552 1.56384L51.4523 1.52375C48.9039 1.49702 48.3494 1.44356 48.3494 1.29655C48.3494 1.18963 48.4814 1.01588 48.6399 0.908962C48.8907 0.735218 49.4453 0.695123 52.0729 0.695123H55.2154L55.6115 1.06934C55.8228 1.26982 56.681 2.67313 57.5129 4.2101C59.335 7.53797 59.401 7.64489 59.5199 7.3375C59.5595 7.21721 59.6783 7.11029 59.7839 7.11029C60.0084 7.11029 60.0084 7.16375 59.8104 7.55133C59.4803 8.12603 59.269 8.31314 58.8993 8.31314C58.622 8.31314 58.4768 8.19285 58.2127 7.75181Z" fill="#7C82FF"/>
<path d="M5.23861 52.4842C4.90851 52.1635 4.90851 52.1368 4.90851 49.7177C4.90851 47.713 4.94812 47.2051 5.11977 46.9645C5.2254 46.8041 5.41026 46.6705 5.51589 46.6705C5.67434 46.6705 5.70074 47.0581 5.70074 49.0094C5.70074 51.3215 5.70074 51.3616 6.03084 51.6823L6.34774 52.0165H13.6231C19.8686 52.0165 20.8853 52.0432 20.8853 52.2036C20.8853 52.3105 20.7532 52.4976 20.5948 52.6045C20.3307 52.7916 19.38 52.8184 12.9233 52.8184H5.5555L5.23861 52.4842Z" fill="#FAFF00"/>
<path d="M24.5955 52.4709C24.3314 52.1368 24.3182 51.9363 24.3182 49.6642C24.3182 47.312 24.3314 47.2051 24.6087 46.9378C25.2029 46.3765 25.2425 46.4967 25.2425 49.143C25.2425 51.6022 25.2425 51.6155 25.5594 51.816C25.8499 52.0031 26.6025 52.0298 32.201 51.9897C38.354 51.9496 38.5389 51.9363 39.3311 51.6422C39.78 51.4819 40.229 51.3482 40.3082 51.3482C40.6251 51.3482 40.1498 51.7224 39.3707 52.0699C37.8391 52.7649 37.2977 52.8184 30.8278 52.8184H24.8596L24.5955 52.4709Z" fill="#FAFF00"/>
<path d="M46.2235 52.5644L45.9066 52.3105V41.0572V29.8039L46.2235 29.55C46.3952 29.4164 46.58 29.2961 46.646 29.2961C46.7121 29.2961 46.7649 33.9738 46.7649 40.3221V51.3616L47.095 51.6823C47.4119 52.0165 47.4119 52.0165 50.2639 52.0165C52.6538 52.0165 53.1028 52.0432 53.1028 52.2036C53.1028 52.3105 52.9707 52.4976 52.8123 52.6045C52.5614 52.7783 52.0201 52.8184 49.5245 52.8184C46.7781 52.8184 46.5008 52.7916 46.2235 52.5644Z" fill="#FAFF00"/>
<path d="M59.1898 52.4709C58.9257 52.1368 58.9125 51.9496 58.9125 49.0628C58.9125 46.0423 58.9125 46.0156 58.5956 45.6414C58.2919 45.2805 58.2523 45.2805 56.5754 45.2271C54.7136 45.1603 54.8193 45.2137 54.9381 44.492C54.9381 44.4252 55.902 44.3985 57.0639 44.4252C59.982 44.4786 59.7576 44.1579 59.8368 48.3411C59.8896 50.7602 59.9424 51.6422 60.0744 51.7759C60.2065 51.9095 60.9987 51.963 63.2038 51.9897C65.6333 52.0298 66.1747 52.0699 66.1747 52.2169C66.1747 52.3239 66.0426 52.4976 65.8842 52.6045C65.6333 52.7783 65.0788 52.8184 62.5304 52.8184H59.4539L59.1898 52.4709Z" fill="#FAFF00"/>
<path d="M69.6737 52.4842L69.3436 52.1635V47.312C69.3568 41.9794 69.4228 41.2978 70.1226 39.2129C71.0865 36.3661 73.5688 30.0311 73.8197 29.7772C74.3083 29.2961 74.2687 29.6569 73.7009 31.1271C71.1921 37.6224 70.6244 39.253 70.4131 40.6563C70.3339 41.1508 70.2678 43.7035 70.2678 46.4967V51.4685L70.6111 51.7358C70.9412 52.0031 71.1261 52.0165 73.6481 52.0165C75.9059 52.0165 76.3417 52.0432 76.3417 52.2036C76.3417 52.3105 76.2096 52.4976 76.0512 52.6045C75.8003 52.7783 75.2722 52.8184 72.869 52.8184H69.9906L69.6737 52.4842Z" fill="#FAFF00"/>
<path d="M82.4815 52.4842C82.1514 52.1635 82.1514 52.1368 82.1514 49.6108V47.0714H80.1708H78.1902V46.6705V46.2695L80.6066 46.2963L83.0097 46.3364L83.0493 48.9024L83.0757 51.4685L83.4322 51.7358C83.7491 52.0031 83.9472 52.0165 86.5879 52.0165C88.2384 52.0165 89.4136 52.0699 89.4136 52.1368C89.4136 52.2036 89.2551 52.3907 89.0703 52.5377C88.7402 52.805 88.5553 52.8184 85.7561 52.8184H82.7984L82.4815 52.4842Z" fill="#FAFF00"/>
<path d="M93.7576 52.5644L93.4407 52.3105V41.0572V29.8039L93.7576 29.55C93.9293 29.4164 94.1141 29.2961 94.1802 29.2961C94.2462 29.2961 94.299 33.9738 94.299 40.3088C94.299 50.9473 94.3122 51.3349 94.5499 51.6289C94.8007 51.9496 94.8403 51.9496 97.8244 52.0165L100.835 52.0833L100.478 52.4575L100.122 52.8184H97.0982C94.3122 52.8184 94.0349 52.7916 93.7576 52.5644Z" fill="#FAFF00"/>
<path d="M102.485 45.8151V45.3607L105.364 45.3073C107.609 45.2538 108.374 45.2003 108.889 45.0132C109.259 44.893 109.734 44.7326 109.946 44.6657L110.342 44.5455L109.906 44.9197C108.955 45.7349 106.46 46.2562 103.383 46.2695H102.485V45.8151Z" fill="#FAFF00"/>
<path d="M9.63549 44.9598L9.26578 44.9197V40.242V35.5776H7.39084C6.34773 35.5776 5.43666 35.5241 5.35744 35.4707C4.97453 35.2167 4.90851 34.7222 4.90851 32.3165V29.844L5.26501 29.5634L5.63472 29.2693L5.70074 31.7686C5.77996 34.9494 5.64792 34.7757 8.15666 34.7757C9.46384 34.7757 9.95239 34.8158 9.992 34.9494C10.0316 35.0296 10.0448 37.3418 10.0316 40.0548L9.992 44.9999L9.63549 44.9598Z" fill="#FAFF00"/>
<path d="M34.7494 44.8796C34.6173 44.7593 33.5082 44.5321 31.686 44.2648C30.1016 44.0376 28.5039 43.7569 28.121 43.65C26.3649 43.1154 25.0709 42.0596 24.6219 40.7498C24.4239 40.1484 24.3843 39.5871 24.3843 36.7136V33.3724L24.8068 32.4903C25.2029 31.675 25.6915 31.0469 25.8367 31.1805C25.8631 31.2206 25.7575 31.5147 25.599 31.8488C25.3218 32.3967 25.3086 32.6373 25.2689 35.7246C25.2293 38.7718 25.2425 39.0658 25.5066 39.8544C25.8763 40.977 26.0876 41.2577 26.9854 41.8725C28.2398 42.7412 29.0453 42.955 32.8876 43.4763C35.4228 43.8238 35.8057 43.9841 35.8057 44.6791C35.8057 45.0266 35.7661 45.0667 35.3699 45.0667C35.1323 45.0667 34.855 44.9865 34.7494 44.8796Z" fill="#FAFF00"/>
<path d="M81.2271 39.2931C81.2271 39.2129 81.0026 38.4243 80.7386 37.5422C80.3821 36.3795 80.1708 35.8984 79.9463 35.7513C79.6691 35.5642 79.6559 35.5241 79.8539 35.1633C80.0916 34.6955 80.5669 34.6421 80.9366 35.0564C81.0819 35.2034 81.4516 36.179 81.7553 37.2215C82.0721 38.264 82.3494 39.1995 82.389 39.2931C82.4286 39.4 82.2702 39.4534 81.8345 39.4534C81.4516 39.4534 81.2271 39.4 81.2271 39.2931Z" fill="#FAFF00"/>
<path d="M105.192 38.6783C105.153 38.6382 105.126 38.1704 105.126 37.6224C105.126 36.4463 104.875 35.7647 104.4 35.5776C104.202 35.4974 103.674 35.4439 103.198 35.4439H102.353V35.043C102.353 34.5886 102.301 34.602 103.938 34.6287C105.628 34.6554 106.024 35.0965 106.037 36.9275C106.05 38.2239 105.945 38.6114 105.575 38.6916C105.403 38.7184 105.232 38.7184 105.192 38.6783Z" fill="#FAFF00"/>
<path d="M57.0376 36.874C56.998 36.4196 56.8791 35.8984 56.7867 35.738C56.5754 35.3905 56.0209 35.1766 55.3343 35.1766C54.8589 35.1766 54.8325 35.1499 54.8589 34.7757L54.8853 34.3748H55.9813C57.0244 34.3748 57.1036 34.4015 57.4733 34.7757C57.8562 35.1633 57.8694 35.19 57.8298 36.4062C57.7902 37.6358 57.7902 37.6492 57.4469 37.6893C57.1168 37.7294 57.1036 37.7026 57.0376 36.874Z" fill="#FAFF00"/>
<path d="M18.3765 35.1766V34.7757H19.6969C20.9776 34.7757 21.0173 34.7891 20.8852 35.043C20.6608 35.4573 20.3174 35.5776 19.3139 35.5776H18.3765V35.1766Z" fill="#FAFF00"/>
<path d="M33.5214 35.484C33.4686 35.4439 33.429 35.2435 33.429 35.043V34.6955L37.2713 34.6688L41.1004 34.6421L41.0608 34.9361C40.9816 35.5108 40.5855 35.5776 36.9808 35.5776C35.1191 35.5776 33.561 35.5375 33.5214 35.484Z" fill="#FAFF00"/>
<path d="M6.94192 26.2221C4.05026 25.9816 1.67355 24.8322 0.749274 23.2284C0.141893 22.1726 0.036262 21.4241 0.00985416 17.4681C-0.0165537 14.0868 -0.00334976 13.766 0.221117 13.5255C0.788886 12.8973 0.815294 13.0577 0.815294 16.6662C0.815294 21.1301 1.01335 22.0256 2.22811 23.2551C3.03355 24.057 4.16909 24.6584 5.50269 24.9926C6.96832 25.3668 7.80017 25.447 10.1769 25.447C12.6328 25.4336 14.1381 25.2599 15.4056 24.8055C15.9206 24.6184 16.4752 24.4312 16.66 24.3911C17.2278 24.2441 16.7656 24.6718 15.8282 25.1262C13.7816 26.142 10.6654 26.5295 6.94192 26.2221Z" fill="#FAFF00"/>
<path d="M22.8658 25.5272C22.5885 25.2198 22.5885 25.1529 22.6281 19.6733L22.6677 14.1269L23.1695 12.6567C24.2522 9.39569 26.8138 2.90033 27.1043 2.65976C27.2627 2.52611 27.4211 2.44592 27.4476 2.48602C27.474 2.51275 27.2495 3.181 26.9458 3.98289C26.6421 4.78479 26.2988 5.70697 26.1668 6.04109C23.2619 13.6992 23.46 12.7637 23.46 19.2323C23.46 24.0838 23.4732 24.4981 23.6976 24.7119C23.9089 24.9257 24.2522 24.9525 26.761 24.9926C28.319 25.0193 29.5998 25.0861 29.5998 25.1396C29.5998 25.193 29.4678 25.3668 29.2961 25.5272C29.0056 25.8078 28.8868 25.8212 26.0611 25.8212C23.1959 25.8212 23.1299 25.8212 22.8658 25.5272Z" fill="#FAFF00"/>
<path d="M35.7 25.5539C35.3832 25.2599 35.3832 25.2732 35.3567 22.48C35.3435 21.638 35.3171 20.7425 35.3039 20.5153L35.2775 20.0743H33.2969H31.3163V19.6733V19.2724L33.7327 19.2991L36.1358 19.3392L36.2018 21.9053C36.2546 24.1372 36.2942 24.5114 36.5055 24.7119C36.7167 24.9257 37.06 24.9525 39.6348 24.9926C42.0115 25.0327 42.5397 25.0728 42.5397 25.2198C42.5397 25.3267 42.4076 25.5004 42.2492 25.6074C41.9983 25.7811 41.457 25.8212 38.9746 25.8212C36.149 25.8212 35.9773 25.8078 35.7 25.5539Z" fill="#FAFF00"/>
<path d="M46.9102 25.4732C46.6329 25.1124 46.6329 25.0455 46.6329 13.9794V2.84639L47.0026 2.56572L47.3591 2.2717L47.4251 13.378C47.4911 23.7892 47.5043 24.4842 47.7288 24.7114C47.9401 24.9253 48.3098 24.9654 50.8978 25.0188L53.829 25.0856L53.4725 25.4599L53.116 25.8207H50.1451H47.1742L46.9102 25.4732Z" fill="#FAFF00"/>
<path d="M62.7152 25.6742C62.2795 25.4202 62.2135 24.6317 62.2135 19.5931V14.6481L62.6492 13.9799L63.0718 13.325L63.1378 18.9115L63.2038 24.5114L63.5207 24.7654C63.798 24.9926 64.062 25.0193 66.65 25.0193C69.0267 25.0193 69.4756 25.046 69.4756 25.2064C69.4756 25.3133 69.3436 25.5004 69.1852 25.6074C68.9343 25.7811 68.3929 25.8212 65.9106 25.8212C64.1809 25.8212 62.8473 25.7544 62.7152 25.6742Z" fill="#FAFF00"/>
<path d="M73.8329 25.5272C73.5556 25.2198 73.5556 25.1529 73.5952 19.6733L73.6348 14.1269L74.1366 12.6567C75.2193 9.39569 77.7809 2.90033 78.0714 2.65976C78.2298 2.52611 78.375 2.44592 78.4015 2.47265C78.4543 2.52611 77.6488 4.71796 76.4737 7.77853C74.3875 13.2047 74.3611 13.3383 74.3611 19.6332V24.3644L74.6912 24.6852C75.008 25.0193 75.008 25.0193 77.7941 25.0193C79.4049 25.0193 80.5669 25.0728 80.5669 25.1396C80.5669 25.2064 80.4084 25.3935 80.2236 25.5405C79.8935 25.8078 79.7086 25.8212 76.9886 25.8212C74.1762 25.8212 74.097 25.8212 73.8329 25.5272Z" fill="#FAFF00"/>
<path d="M86.6671 25.5539C86.3502 25.2599 86.3634 25.3 86.3106 22.079C86.2974 21.1568 86.271 20.3282 86.271 20.248C86.2446 20.1144 85.7561 20.0743 84.264 20.0743H82.2834V19.6733V19.2724H84.713H87.1557L87.1953 21.8785C87.2349 24.1639 87.2613 24.5114 87.4726 24.7119C87.6838 24.9257 88.0271 24.9525 90.6019 24.9926C92.9786 25.0327 93.5067 25.0728 93.5067 25.2198C93.5067 25.3267 93.3747 25.5004 93.2162 25.6074C92.9654 25.7811 92.424 25.8212 89.9417 25.8212C87.1161 25.8212 86.9444 25.8078 86.6671 25.5539Z" fill="#FAFF00"/>
<path d="M97.8773 25.4737C97.6 25.1129 97.6 25.046 97.6 13.9932C97.6 3.56858 97.6132 2.86024 97.8376 2.65976C98.4054 2.13853 98.379 1.83114 98.4186 13.4185C98.4582 23.8298 98.4714 24.4847 98.6959 24.7119C98.9204 24.9391 99.5013 24.9525 107.675 25.0193L116.416 25.0861L116.059 25.4603L115.703 25.8212H106.922H98.1413L97.8773 25.4737Z" fill="#FAFF00"/>
<path d="M11.3784 10.5852V2.95379L11.7481 2.59294L12.1046 2.23209L12.1442 10.0506C12.1574 14.3541 12.1442 17.9493 12.1046 18.0428C12.0782 18.123 11.8934 18.2032 11.7085 18.2032H11.3784V10.5852Z" fill="#FAFF00"/>
<path d="M109.351 15.9579C109.351 13.7259 109.431 13.3784 110.012 13.2181C110.276 13.1512 110.276 13.2047 110.276 15.45C110.276 17.8824 110.236 18.0695 109.655 18.0695H109.351V15.9579Z" fill="#FAFF00"/>
<path d="M56.6678 17.6552C55.7963 17.3077 55.3474 16.439 55.3474 15.1292C55.3474 14.608 55.4002 14.1937 55.4795 14.1937C55.5455 14.1937 55.836 14.6347 56.1264 15.1693C57.0375 16.84 57.2092 16.9469 59.0841 16.9201L60.2328 16.9068L59.9424 17.2275C59.7839 17.4013 59.4406 17.5884 59.1897 17.6686C58.5956 17.8423 57.1035 17.829 56.6678 17.6552Z" fill="#FAFF00"/>
<path d="M34.1024 11.1331C33.8779 10.3981 33.6931 9.76991 33.6931 9.71645C33.6931 9.44915 33.2441 8.71408 33.0857 8.71408C32.8612 8.71408 32.848 8.39332 33.0329 8.03247C33.2045 7.71171 33.7063 7.69834 34.0628 8.0191C34.2344 8.16612 34.5513 8.95465 34.9342 10.1976C35.2643 11.2668 35.5416 12.2157 35.5416 12.2959C35.5416 12.3894 35.3304 12.4563 35.0267 12.4563H34.5117L34.1024 11.1331Z" fill="#FAFF00"/>
<path d="M85.0695 11.1331C84.845 10.3981 84.6601 9.76991 84.6601 9.71645C84.6601 9.44915 84.2112 8.71408 84.0528 8.71408C83.9471 8.71408 83.8679 8.62052 83.8679 8.50024C83.8679 8.11266 84.1452 7.77853 84.4489 7.77853C85.0563 7.77853 85.2939 8.17948 85.9145 10.211C86.2446 11.2801 86.5087 12.2291 86.5087 12.3092C86.5087 12.3894 86.271 12.4563 85.9937 12.4563H85.4788L85.0695 11.1331Z" fill="#FAFF00"/>
<path d="M59.5859 7.2172C60.7082 5.01199 61.8834 2.94042 62.1474 2.69985C62.3323 2.52611 62.4775 2.43256 62.4775 2.49938C62.4775 2.55284 62.0814 3.32801 61.5929 4.22346C61.1176 5.10554 60.5234 6.20147 60.2857 6.64251C60.0481 7.08355 59.7576 7.47114 59.6387 7.4845C59.4539 7.5246 59.4407 7.49787 59.5859 7.2172Z" fill="#FAFF00"/>
</svg>
