<svg width="19" height="20" viewBox="0 0 19 20" fill="none" xmlns="http://www.w3.org/2000/svg">
<path d="M8.63722 19.6537C8.35443 19.6198 8.02699 19.5106 7.78513 19.3674C7.54327 19.2243 7.20095 18.8853 7.02979 18.6254C6.587 17.9323 6.587 16.9378 7.02979 16.2447C7.33118 15.7739 7.87816 15.3784 8.39536 15.2503C8.82699 15.1486 9.43722 15.2202 9.82792 15.4198L10.014 15.514L10.0214 11.6078C10.0326 7.75432 10.0326 7.69781 10.107 7.56597C10.1516 7.49441 10.2335 7.40777 10.293 7.37387C10.4493 7.28346 18.3005 5.03467 18.4679 5.03467C18.6428 5.0309 18.8288 5.14391 18.9256 5.30588C19 5.43772 19 5.47539 19 10.4853V15.5328L18.8995 15.8342C18.2819 17.6761 15.9079 17.9662 14.8921 16.3238C14.4754 15.6496 14.4865 14.6589 14.9181 13.9846C15.2195 13.5138 15.7665 13.1183 16.2837 12.9902C16.7154 12.8885 17.3256 12.9601 17.7163 13.1597L17.9023 13.2539V10.9184C17.9023 9.07647 17.8912 8.58302 17.8577 8.58302C17.8316 8.58302 16.3098 9.01243 14.4791 9.53979L11.1488 10.4928L11.1302 14.1428L11.1116 17.7929L11.0075 18.098C10.7693 18.8137 10.2298 19.3561 9.54885 19.5633C9.20281 19.6688 8.97583 19.6914 8.63722 19.6537Z" fill="white"/>
<path d="M1.93953 14.0035C1.65674 13.9696 1.3293 13.8603 1.08744 13.7172C0.84558 13.5741 0.503255 13.235 0.332092 12.9751C-0.110697 12.282 -0.110697 11.2876 0.332092 10.5945C0.633487 10.1237 1.18046 9.72813 1.69767 9.60006C2.1293 9.49836 2.73953 9.56993 3.13023 9.76957L3.31627 9.86374L3.32371 5.35485C3.33488 0.894932 3.33488 0.842197 3.4093 0.710358C3.50604 0.548384 3.68092 0.442913 3.86697 0.439147C4.13488 0.43538 4.21674 0.514483 4.68929 1.23018C5.22139 2.04005 5.48557 2.37906 5.97301 2.89135C6.40836 3.34713 6.8958 3.77655 7.58045 4.31521C8.11626 4.73709 8.3358 4.98194 8.56277 5.42642C8.97208 6.21369 8.97208 7.18176 8.56277 7.97279C8.27626 8.53028 7.87812 8.9258 7.31999 9.21208C6.8251 9.46446 6.11441 9.56993 5.85022 9.43432C5.50045 9.24975 5.49673 8.66966 5.8465 8.48885C5.90976 8.45495 6.09208 8.41351 6.25208 8.39468C6.78417 8.33441 7.17487 8.11593 7.46882 7.70535C7.87812 7.14409 7.88929 6.29279 7.49487 5.72023C7.34975 5.50929 7.31627 5.48292 6.47534 4.8162C5.94324 4.39431 4.96092 3.44884 4.64464 3.05332L4.45115 2.81225L4.43255 7.47934L4.41395 12.1427L4.31348 12.4478C4.07162 13.1635 3.53209 13.7059 2.85116 13.9131C2.50511 14.0185 2.27814 14.0411 1.93953 14.0035Z" fill="white"/>
</svg>
