<svg width="28" height="28" viewBox="0 0 28 28" fill="none" xmlns="http://www.w3.org/2000/svg">
<path d="M19.168 27.94C13.2508 27.6775 7.66724 24.7189 4.0688 19.9338C2.73442 18.1619 1.75005 16.2697 1.03364 14.1095C0.568799 12.6986 0.268018 11.2548 0.109424 9.67438C0.0328613 8.89235 0.0328613 7.23532 0.109424 6.72672C0.667236 3.07906 3.6313 0.322815 7.27349 0.060315C7.97896 0.0110962 8.1813 0.0493775 8.40005 0.284534C8.62427 0.530627 12.1407 9.29703 12.1407 9.61422C12.1407 9.86032 11.9821 10.1392 11.7633 10.2705C11.6758 10.3197 10.7461 10.708 9.69067 11.1291L7.77661 11.8947L7.80396 12.1681C7.98989 14.0548 8.77739 15.8759 9.99146 17.2267C10.8227 18.1455 11.6649 18.7908 12.7149 19.3103C13.6993 19.7916 14.7547 20.0923 15.8321 20.1963L16.1055 20.2236L16.8711 18.3095C17.2922 17.2541 17.6805 16.3244 17.7297 16.2369C17.861 16.0181 18.1399 15.8595 18.386 15.8595C18.7032 15.8595 27.4696 19.3759 27.7157 19.6056C27.9508 19.8189 27.9836 19.9939 27.9344 20.7158C27.8688 21.7603 27.6391 22.6025 27.1579 23.5978C26.179 25.6048 24.3469 27.1197 22.1977 27.6939C21.2899 27.9345 20.5133 28.0002 19.168 27.94ZM21.1477 26.3048C23.1438 25.9767 24.8282 24.7298 25.7469 22.8814C26.0969 22.1869 26.4579 20.7923 26.3211 20.672C26.2883 20.6447 21.8422 18.8564 18.8946 17.6861C18.8618 17.6697 18.5008 18.5009 18.0852 19.54C17.6696 20.5736 17.2977 21.465 17.254 21.5306C17.0516 21.815 16.6032 21.8806 15.5422 21.7603C11.5227 21.3283 8.08833 18.5939 6.76489 14.7822C6.42036 13.7978 6.17974 12.4744 6.17974 11.5611C6.17974 11.1673 6.28364 10.8775 6.46958 10.7463C6.53521 10.7025 7.42661 10.3306 8.46021 9.915C9.49927 9.49938 10.3305 9.13844 10.3141 9.10563C9.09458 6.03219 7.35552 1.71188 7.32271 1.6736C7.29536 1.64625 7.11489 1.65172 6.87974 1.69C4.26567 2.11656 2.17661 4.14547 1.72271 6.71578C1.6188 7.29 1.6188 8.89235 1.72271 9.86032C2.06724 13.0322 3.19927 15.9853 5.07505 18.6431C5.91177 19.8298 7.36099 21.3611 8.50396 22.2744C11.2985 24.5111 14.6235 25.8947 18.1016 26.272C18.9219 26.365 20.6774 26.3814 21.1477 26.3048Z" fill="white"/>
</svg>
