<svg width="25" height="23" viewBox="0 0 25 23" fill="none" xmlns="http://www.w3.org/2000/svg">
<path d="M18.8377 22.6555C18.7298 22.6304 18.5533 22.565 18.4455 22.5097C18.3425 22.4545 17.1806 21.5045 15.8619 20.3937C14.5431 19.2879 13.4352 18.3882 13.4009 18.4033C13.3665 18.4184 12.4155 19.1371 11.2879 20.0017C10.1604 20.8662 9.14066 21.6251 9.023 21.6854C8.76807 21.8211 8.6259 21.8312 8.42981 21.7257C8.07193 21.5347 8.09644 21.6251 7.18459 17.2774C6.71886 15.0659 6.32667 13.2464 6.31686 13.2363C6.30706 13.2313 5.09616 12.6834 3.62543 12.025C2.1547 11.3716 0.87027 10.7886 0.772222 10.7383C0.502588 10.5976 0.247662 10.3111 0.105492 9.99943C0.00254112 9.7632 -0.0121662 9.67775 0.00744354 9.31586C0.0319557 8.82329 0.154516 8.56192 0.517296 8.23522C0.737905 8.0392 0.909489 7.97386 4.74809 6.67708C6.94928 5.92817 12.0037 4.21925 15.9795 2.87222C24.0293 0.147997 23.5587 0.283705 24.1176 0.54507C24.5 0.726014 24.6764 0.901933 24.848 1.25377C24.9706 1.50508 25 1.62571 25 1.8921C25 2.15347 24.5294 4.27957 22.7694 11.9345C21.5438 17.2774 20.4996 21.7307 20.4456 21.8362C20.1466 22.4394 19.4652 22.7862 18.8377 22.6555ZM21.382 11.6229C22.588 6.37048 23.5734 2.03284 23.5783 1.9876C23.5783 1.93734 23.544 1.89713 23.4999 1.89713C23.4606 1.89713 19.4063 3.25421 14.4941 4.9179C1.7429 9.22539 1.40954 9.33597 1.43405 9.40131C1.45366 9.47167 6.85613 11.9094 6.93947 11.8893C6.96888 11.8792 9.57207 10.4066 12.7243 8.60716C18.166 5.50597 18.47 5.3401 18.7004 5.3401C19.019 5.3401 19.2249 5.48587 19.3426 5.79247C19.4112 5.98849 19.4161 6.05383 19.3671 6.22472C19.2985 6.4509 19.5436 6.18451 14.5627 11.5224C12.891 13.3168 11.5232 14.8095 11.533 14.8397C11.5625 14.9352 19.0436 21.1929 19.1171 21.1828C19.1661 21.1728 19.7495 18.7149 21.382 11.6229ZM11.1654 18.2827C11.7635 17.8253 12.2488 17.4332 12.2488 17.4031C12.2488 17.3327 10.8418 16.1666 10.8173 16.2119C10.8026 16.232 10.6261 16.8603 10.4202 17.6041C10.2143 18.353 10.0329 19.0014 10.0133 19.0567C9.99858 19.107 10.0084 19.1422 10.0378 19.1321C10.0623 19.1221 10.5722 18.7401 11.1654 18.2827ZM9.23871 16.5235C9.44461 15.7645 9.66031 15.0005 9.71424 14.8296C9.80249 14.523 9.8417 14.4778 12.3027 11.839C13.6754 10.3663 14.7882 9.15502 14.7784 9.13994C14.7637 9.12989 13.1901 10.0095 11.2732 11.1002C8.91024 12.4472 7.79249 13.1056 7.79249 13.1609C7.79249 13.2062 8.0131 14.2918 8.28273 15.5735C8.55237 16.8552 8.77298 17.9258 8.77298 17.9509C8.77298 18.1319 8.90534 17.7298 9.23871 16.5235Z" fill="white"/>
</svg>
