<svg width="28" height="28" viewBox="0 0 28 28" fill="none" xmlns="http://www.w3.org/2000/svg">
<path d="M1.03906 27.0047C1.03906 26.9664 1.44375 25.4625 1.94141 23.6578L2.83828 20.3875L2.43359 19.5562C-0.0109375 14.5523 0.973438 8.66794 4.91641 4.70856C6.96172 2.65231 9.52109 1.39997 12.5508 0.973404C13.1906 0.885904 14.9734 0.885904 15.6406 0.978873C20.1031 1.5859 23.8 4.22184 25.7359 8.17575C26.6492 10.0515 27.0375 11.7468 27.0375 13.8632C27.0375 15.9961 26.6547 17.6586 25.7305 19.5507C23.8602 23.3953 20.2453 26.0531 15.9687 26.7257C15.0937 26.8625 13.0758 26.8625 12.2062 26.7257C10.8937 26.5179 9.49375 26.0859 8.4 25.5445L7.85859 25.2765L4.56094 26.1406C2.75078 26.6164 1.21406 27.0211 1.15391 27.0429C1.07734 27.0648 1.03906 27.0539 1.03906 27.0047ZM15.0992 24.664C19.8625 24.1882 23.7562 20.6992 24.6914 16.0562C25.3586 12.7367 24.5109 9.43356 22.318 6.82497C20.8906 5.12419 18.7523 3.82262 16.5703 3.31403C15.3945 3.04606 13.7102 2.97497 12.5508 3.1445C10.1937 3.4945 8.09922 4.5445 6.43125 6.21247C2.89297 9.75622 2.23125 15.2359 4.83437 19.5234L5.15156 20.0429L4.60469 22.039C4.30391 23.1382 4.05781 24.0406 4.06328 24.0461C4.07422 24.0515 4.99844 23.8109 6.125 23.5156L8.17031 22.9797L8.58594 23.2148C10.593 24.3742 12.8789 24.8828 15.0992 24.664Z" fill="white"/>
<path d="M16.4337 19.9609C15.9141 19.8242 14.9626 19.4797 14.2954 19.1844C13.1469 18.6758 12.086 17.9266 10.9376 16.8109C9.33522 15.2469 8.00632 13.3219 7.66179 12.0367C7.27897 10.6367 7.61804 9.32422 8.60788 8.33984C8.99616 7.95156 9.1985 7.875 9.80007 7.875C10.3141 7.875 10.5219 7.94609 10.6587 8.16484C10.7626 8.33984 11.6321 10.3961 11.818 10.9102C11.9001 11.1453 11.9055 11.2055 11.8399 11.3586C11.7633 11.5391 11.468 11.9656 11.0633 12.4578C10.768 12.8297 10.7571 12.9883 11.0251 13.4312C11.7305 14.6016 12.8516 15.7227 14.0274 16.4336C14.6071 16.7836 15.493 17.1719 15.7063 17.1719C15.9087 17.1719 16.0673 17.0133 16.7727 16.1164C17.0626 15.75 17.2868 15.5203 17.3743 15.4984C17.5548 15.4492 17.8173 15.5586 19.2884 16.275C20.3712 16.7945 20.5735 16.9148 20.6227 17.0461C20.7048 17.243 20.6063 17.9812 20.4423 18.4187C20.218 19.0148 19.4469 19.6437 18.5829 19.9281C18.2219 20.0539 18.0743 20.0703 17.4891 20.0648C17.0188 20.0648 16.7016 20.032 16.4337 19.9609Z" fill="white"/>
</svg>
